<svg width="25" height="25" viewBox="0 0 25 25" fill="none" xmlns="http://www.w3.org/2000/svg">
<path d="M24.5438 22.3407L19.7047 17.4995C23.3255 12.6608 22.3382 5.80293 17.4995 2.18208C12.6608 -1.43877 5.80293 -0.451484 2.18208 4.38723C-1.43877 9.22595 -0.451484 16.0838 4.38723 19.7047C8.27409 22.6132 13.6126 22.6132 17.4995 19.7047L22.3407 24.5458C22.949 25.1542 23.9354 25.1542 24.5437 24.5458C25.1521 23.9374 25.1521 22.9511 24.5437 22.3428L24.5438 22.3407ZM10.9837 18.7703C6.68329 18.7703 3.19715 15.2841 3.19715 10.9837C3.19715 6.68329 6.68329 3.19715 10.9837 3.19715C15.2841 3.19715 18.7703 6.68329 18.7703 10.9837C18.7657 15.2822 15.2822 18.7657 10.9837 18.7703Z" fill="#EBEBEB"/>
</svg>
