<svg width="30" height="30" viewBox="0 0 30 30" fill="none" xmlns="http://www.w3.org/2000/svg">
<path opacity="0.5" fill-rule="evenodd" clip-rule="evenodd" d="M0.284154 9.1767C0.564461 9.1767 0.464624 9.56452 0.852445 9.46085C1.63193 9.0615 1.77784 8.0286 1.84312 6.91121C2.63796 5.62871 3.38288 4.2963 4.39275 3.22883C7.08446 1.43948 9.96432 0.882705 12.8903 0.395049C14.9369 0.0571459 16.5189 -0.292277 18.554 0.39505C21.3225 1.32812 25.7152 4.33854 27.3356 6.76914C29.0136 9.28037 29.4283 13.627 29.125 16.7373C28.7103 22.9655 23.3192 27.7345 16.8568 29.2896C16.0735 29.0285 14.7449 30.0538 13.7389 29.5738C13.5046 29.7619 12.8365 29.5239 12.8903 30C10.5633 29.2436 8.6703 28.7636 6.51617 28.0187C3.76302 25.3692 0.856284 22.3434 0.14208 18.1043C0.253434 16.2727 0.241917 14.5524 8.96828e-06 13.005C0.38399 11.6457 0.549101 10.5744 0.284154 9.18054L0.284154 9.1767ZM24.3636 10.3094C24.6516 10.3517 24.6401 10.6934 24.9319 10.7357C24.9012 10.4669 25.0893 10.4246 25.074 10.1674C24.8666 10.2442 24.3406 10.0023 24.3636 10.3094ZM22.9467 10.7357C23.2462 11.2886 23.6993 11.6841 24.2215 12.0105C24.0104 11.4614 23.419 10.5552 22.9467 10.7357ZM21.1036 17.3901C21.6181 17.4477 21.7756 18.5996 22.2364 18.2387C21.7948 18.1081 21.5183 17.0752 21.1036 17.3901ZM13.3933 22.1591C13.5737 22.1668 13.7965 21.9633 14.023 21.9249C15.7932 19.9666 17.9626 18.4038 19.8288 16.5415C19.9939 15.9232 20.8079 14.3566 19.6867 14.1339C19.633 12.8706 18.2468 12.2601 17.2792 11.3001C15.2633 9.30341 13.4854 7.48334 10.9051 7.19152C10.0296 7.26447 9.49586 8.71592 10.4789 10.0253C11.8881 12.4559 15.221 14.1377 14.9945 15.8196C14.0153 15.9732 13.3587 17.4323 12.8903 18.0966C12.0954 18.5689 11.4388 19.5058 11.2545 19.5595C8.86229 21.0072 11.362 24.7433 13.3933 22.1553L13.3933 22.1591ZM18.6961 20.6501C19.3757 20.9611 19.3373 21.994 20.1129 22.209C19.9862 21.4334 19.2029 20.5733 18.6961 20.6501ZM14.5913 4.36158C14.8294 4.92987 15.4706 5.8399 15.8661 5.77847C15.3708 5.37913 15.1212 4.7302 14.5913 4.36158ZM12.8903 4.36158C13.4163 4.63804 13.5315 5.32537 14.023 5.63639C13.7427 5.20249 13.3626 4.13119 12.8903 4.36158ZM5.24135 14.9825C5.5255 15.2705 5.89796 16.2074 6.23202 15.9732C5.89412 15.7389 5.59077 14.7329 5.24135 14.9825ZM3.68239 10.0253C4.40811 10.9085 5.25671 12.4137 5.94788 12.8591C5.14919 11.9567 4.70762 10.6973 3.68239 10.0253ZM4.53483 7.19152C4.40043 7.50638 3.87438 8.45097 4.6769 8.46633C4.72297 8.09003 5.20295 8.14379 5.24519 7.75981C4.7153 7.86732 4.93417 7.2184 4.53483 7.19152ZM5.24135 17.1059C4.80745 15.5546 3.68623 14.6945 2.83379 13.5656C3.55183 14.8289 4.43115 15.9348 5.24135 17.1059Z" fill="white"/>
</svg>
