<svg width="30" height="30" viewBox="0 0 30 30" fill="none" xmlns="http://www.w3.org/2000/svg">
<path opacity="0.5" fill-rule="evenodd" clip-rule="evenodd" d="M28.9323 20.8233C28.652 20.8233 28.7519 20.4355 28.364 20.5392C27.5846 20.9385 27.4387 21.9714 27.3734 23.0888C26.5785 24.3713 25.8336 25.7037 24.8237 26.7712C22.132 28.5605 19.2522 29.1173 16.3262 29.605C14.2796 29.9429 12.6976 30.2923 10.6625 29.605C7.89401 28.6719 3.50126 25.6615 1.88086 23.2309C0.202864 20.7196 -0.211836 16.373 0.0915092 13.2627C0.506209 7.03453 5.8973 2.26549 12.3597 0.710365C13.143 0.971473 14.4716 -0.0537565 15.4776 0.42622C15.7119 0.238069 16.38 0.476137 16.3262 7.54792e-08C18.6532 0.756443 20.5462 1.23642 22.7003 1.98134C25.4535 4.63081 28.3602 7.65658 29.0744 11.8957C28.9631 13.7273 28.9746 15.4476 29.2165 16.995C28.8325 18.3543 28.6674 19.4256 28.9323 20.8195L28.9323 20.8233ZM4.85288 19.6906C4.56489 19.6483 4.57641 19.3066 4.28458 19.2643C4.3153 19.5331 4.12715 19.5754 4.14251 19.8326C4.34986 19.7558 4.87592 19.9977 4.85288 19.6906ZM6.26977 19.2643C5.97026 18.7114 5.51716 18.3159 4.99495 17.9895C5.20614 18.5386 5.79747 19.4448 6.26977 19.2643ZM8.11288 12.6099C7.59834 12.5523 7.44091 11.4004 6.98013 11.7613C7.42171 11.8919 7.69818 12.9248 8.11288 12.6099ZM15.8232 7.8409C15.6427 7.83322 15.42 8.03673 15.1935 8.07512C13.4233 10.0334 11.2538 11.5962 9.38769 13.4585C9.22258 14.0768 8.40854 15.6434 9.52977 15.8661C9.58352 17.1294 10.9697 17.7399 11.9373 18.6999C13.9532 20.6966 15.7311 22.5167 18.3114 22.8085C19.1869 22.7355 19.7206 21.2841 18.7376 19.9747C17.3284 17.5441 13.9955 15.8623 14.222 14.1804C15.2012 14.0268 15.8578 12.5677 16.3262 11.9034C17.1211 11.4311 17.7777 10.4942 17.962 10.4405C20.3542 8.99284 17.8545 5.2567 15.8232 7.84474L15.8232 7.8409ZM10.5204 9.34994C9.84079 9.03892 9.87919 8.00601 9.10355 7.79098C9.23026 8.56662 10.0136 9.42674 10.5204 9.34994ZM14.6252 25.6384C14.3871 25.0701 13.7459 24.1601 13.3504 24.2215C13.8457 24.6209 14.0953 25.2698 14.6252 25.6384ZM16.3262 25.6384C15.8002 25.362 15.685 24.6746 15.1935 24.3636C15.4738 24.7975 15.8539 25.8688 16.3262 25.6384ZM23.9751 15.0175C23.691 14.7295 23.3185 13.7926 22.9845 14.0268C23.3224 14.2611 23.6257 15.2671 23.9751 15.0175ZM25.5341 19.9747C24.8084 19.0915 23.9598 17.5863 23.2686 17.1409C24.0673 18.0433 24.5089 19.3027 25.5341 19.9747ZM24.6817 22.8085C24.8161 22.4936 25.3421 21.549 24.5396 21.5337C24.4935 21.91 24.0135 21.8562 23.9713 22.2402C24.5012 22.1327 24.2823 22.7816 24.6817 22.8085ZM23.9751 12.8941C24.409 14.4454 25.5303 15.3055 26.3827 16.4344C25.6647 15.1711 24.7853 14.0652 23.9751 12.8941Z" fill="white"/>
</svg>
