<svg width="230" height="70" viewBox="0 0 230 70" fill="none" xmlns="http://www.w3.org/2000/svg">
<path d="M134.06 47C133.88 47 133.79 46.9 133.79 46.7V46.31C133.79 46.13 133.89 46.03 134.09 46.01L136.94 45.65C137.22 45.61 137.39 45.56 137.45 45.5C137.51 45.42 137.54 45.24 137.54 44.96V28.67L138.86 28.01L129.59 39.74L128.9 38.69H142.28L144.02 38.33C144.22 38.29 144.34 38.29 144.38 38.33C144.42 38.35 144.44 38.46 144.44 38.66C144.44 38.98 144.43 39.29 144.41 39.59C144.39 39.89 144.36 40.21 144.32 40.55C144.3 40.73 144.19 40.82 143.99 40.82H127.94C127.76 40.82 127.67 40.72 127.67 40.52V40.1C127.67 40 127.68 39.91 127.7 39.83C127.74 39.75 127.79 39.67 127.85 39.59L139.4 25.04C139.52 24.92 139.68 24.87 139.88 24.89L140.33 25.01C140.51 25.07 140.59 25.19 140.57 25.37L140.42 27.29C140.4 27.53 140.38 27.76 140.36 27.98C140.36 28.18 140.36 28.41 140.36 28.67V44.99C140.36 45.25 140.39 45.42 140.45 45.5C140.53 45.56 140.71 45.61 140.99 45.65L144.05 46.01C144.23 46.03 144.32 46.14 144.32 46.34V46.73C144.32 46.91 144.22 47 144.02 47H134.06Z" fill="#273F7C"/>
<path d="M116.43 47.24C114.71 47.24 113.22 46.79 111.96 45.89C110.72 44.99 109.76 43.71 109.08 42.05C108.42 40.37 108.09 38.38 108.09 36.08C108.09 33.76 108.42 31.77 109.08 30.11C109.76 28.43 110.72 27.14 111.96 26.24C113.2 25.34 114.69 24.89 116.43 24.89C118.21 24.89 119.73 25.34 120.99 26.24C122.25 27.12 123.22 28.4 123.9 30.08C124.58 31.74 124.92 33.74 124.92 36.08C124.92 38.4 124.58 40.4 123.9 42.08C123.22 43.74 122.25 45.02 120.99 45.92C119.73 46.8 118.21 47.24 116.43 47.24ZM116.37 45.38C118.15 45.38 119.52 44.58 120.48 42.98C121.44 41.36 121.92 39.06 121.92 36.08C121.92 33.08 121.44 30.78 120.48 29.18C119.52 27.56 118.15 26.75 116.37 26.75C115.23 26.75 114.27 27.11 113.49 27.83C112.71 28.55 112.11 29.6 111.69 30.98C111.29 32.36 111.09 34.06 111.09 36.08C111.09 39.06 111.54 41.36 112.44 42.98C113.36 44.58 114.67 45.38 116.37 45.38Z" fill="#273F7C"/>
<path d="M94.5091 47C94.3291 47 94.2391 46.9 94.2391 46.7V46.31C94.2391 46.13 94.3391 46.03 94.5391 46.01L97.3891 45.65C97.6691 45.61 97.8391 45.56 97.8991 45.5C97.9591 45.42 97.9891 45.24 97.9891 44.96V28.67L99.3091 28.01L90.0391 39.74L89.3491 38.69H102.729L104.469 38.33C104.669 38.29 104.789 38.29 104.829 38.33C104.869 38.35 104.889 38.46 104.889 38.66C104.889 38.98 104.879 39.29 104.859 39.59C104.839 39.89 104.809 40.21 104.769 40.55C104.749 40.73 104.639 40.82 104.439 40.82H88.3891C88.2091 40.82 88.1191 40.72 88.1191 40.52V40.1C88.1191 40 88.1291 39.91 88.1491 39.83C88.1891 39.75 88.2391 39.67 88.2991 39.59L99.8491 25.04C99.9691 24.92 100.129 24.87 100.329 24.89L100.779 25.01C100.959 25.07 101.039 25.19 101.019 25.37L100.869 27.29C100.849 27.53 100.829 27.76 100.809 27.98C100.809 28.18 100.809 28.41 100.809 28.67V44.99C100.809 45.25 100.839 45.42 100.899 45.5C100.979 45.56 101.159 45.61 101.439 45.65L104.499 46.01C104.679 46.03 104.769 46.14 104.769 46.34V46.73C104.769 46.91 104.669 47 104.469 47H94.5091Z" fill="#273F7C"/>
<path d="M229.5 35C229.5 39.5934 226.44 44.0667 220.671 48.2177C214.914 52.3603 206.551 56.1116 196.172 59.2704C175.42 65.5862 146.721 69.5 115 69.5C83.2788 69.5 54.5802 65.5862 33.8283 59.2704C23.4493 56.1116 15.0864 52.3603 9.3293 48.2177C3.56043 44.0667 0.5 39.5934 0.5 35C0.5 30.4066 3.56043 25.9333 9.3293 21.7823C15.0864 17.6397 23.4493 13.8884 33.8283 10.7296C54.5802 4.41382 83.2788 0.5 115 0.5C146.721 0.5 175.42 4.41382 196.172 10.7296C206.551 13.8884 214.914 17.6397 220.671 21.7823C226.44 25.9333 229.5 30.4066 229.5 35Z" stroke="#273F7C"/>
</svg>
