<svg width="164" height="50" viewBox="0 0 164 50" fill="none" xmlns="http://www.w3.org/2000/svg">
<path d="M111.809 28.732V22.642H113.097V28.732H111.809ZM112.033 25.708C111.781 25.4093 111.487 25.19 111.151 25.05C110.824 24.91 110.456 24.84 110.045 24.84C109.336 24.84 108.785 25.0827 108.393 25.568C108.001 26.0533 107.805 26.7347 107.805 27.612C107.805 28.3867 107.968 28.9933 108.295 29.432C108.631 29.8707 109.088 30.09 109.667 30.09C110.087 30.09 110.488 29.9873 110.871 29.782C111.263 29.5767 111.608 29.2873 111.907 28.914L112.047 29.236C111.72 29.8147 111.305 30.272 110.801 30.608C110.306 30.944 109.798 31.112 109.275 31.112C108.706 31.112 108.211 30.972 107.791 30.692C107.371 30.412 107.049 30.0153 106.825 29.502C106.601 28.9887 106.489 28.3773 106.489 27.668C106.489 26.9213 106.62 26.2727 106.881 25.722C107.152 25.1713 107.53 24.7467 108.015 24.448C108.5 24.14 109.065 23.986 109.709 23.986C110.297 23.986 110.82 24.112 111.277 24.364C111.734 24.616 112.103 24.9847 112.383 25.47L112.033 25.708ZM111.809 23.048V21.004L112.061 21.424L110.857 21.228C110.773 21.2187 110.731 21.1673 110.731 21.074V20.906C110.731 20.822 110.778 20.7753 110.871 20.766L112.733 20.486C112.864 20.4673 112.957 20.4767 113.013 20.514C113.069 20.542 113.097 20.6167 113.097 20.738V23.048H111.809ZM113.097 28.732V30.608L112.831 30.174L114.035 30.454C114.119 30.482 114.161 30.538 114.161 30.622V30.79C114.161 30.874 114.114 30.9207 114.021 30.93L112.075 31.112C112.01 31.1213 111.954 31.1073 111.907 31.07C111.87 31.042 111.851 30.9907 111.851 30.916V29.32L111.809 29.194V28.732H113.097Z" fill="#273F7C"/>
<path d="M102.937 26.45C102.937 25.9927 102.821 25.6473 102.587 25.414C102.354 25.1713 102.009 25.05 101.551 25.05C101.15 25.05 100.735 25.1573 100.305 25.372C99.8761 25.5773 99.4748 25.8667 99.1014 26.24L98.9754 25.904C99.2274 25.5307 99.5261 25.204 99.8714 24.924C100.217 24.6347 100.585 24.4107 100.977 24.252C101.369 24.084 101.761 24 102.153 24C102.844 24 103.362 24.1913 103.707 24.574C104.053 24.9567 104.225 25.526 104.225 26.282V31H102.937V26.45ZM97.9394 31V26.576H99.2274V31H97.9394ZM97.0994 31C97.0154 31 96.9734 30.9533 96.9734 30.86V30.72C96.9734 30.6267 97.0201 30.5753 97.1134 30.566L97.6595 30.44C97.7901 30.412 97.8694 30.3793 97.8974 30.342C97.9254 30.3047 97.9394 30.2207 97.9394 30.09V28.48H99.2274V30.104C99.2274 30.2253 99.2415 30.3047 99.2695 30.342C99.3068 30.3793 99.3908 30.4073 99.5215 30.426L100.389 30.58C100.473 30.5893 100.515 30.6407 100.515 30.734V30.874C100.515 30.958 100.469 31 100.375 31H97.0994ZM102.097 31C102.013 31 101.971 30.9533 101.971 30.86V30.72C101.971 30.6267 102.018 30.5753 102.111 30.566L102.657 30.44C102.788 30.412 102.867 30.3793 102.895 30.342C102.923 30.3047 102.937 30.2207 102.937 30.09V28.48H104.225V30.104C104.225 30.2253 104.239 30.3047 104.267 30.342C104.305 30.3793 104.389 30.4073 104.519 30.426L105.387 30.58C105.471 30.5893 105.513 30.6407 105.513 30.734V30.874C105.513 30.958 105.467 31 105.373 31H102.097ZM97.9394 26.576V24.532L98.1914 24.952L96.9874 24.756C96.9034 24.7467 96.8615 24.6953 96.8615 24.602V24.434C96.8615 24.3593 96.9081 24.308 97.0014 24.28L98.7794 24.014C98.9101 23.9953 99.0034 24.0047 99.0594 24.042C99.1154 24.07 99.1434 24.1447 99.1434 24.266V25.652L99.2274 25.89V26.576H97.9394Z" fill="#273F7C"/>
<path d="M87.9275 31V20.612H89.2995V29.908C89.2995 30.02 89.3228 30.0993 89.3695 30.146C89.4255 30.1927 89.5141 30.216 89.6355 30.216H93.7375C93.8495 30.216 93.9381 30.1927 94.0035 30.146C94.0781 30.0993 94.1435 30.0247 94.1995 29.922L94.9835 28.382C95.0208 28.3073 95.0861 28.284 95.1795 28.312L95.4175 28.382C95.5108 28.41 95.5435 28.4707 95.5155 28.564L95.1515 30.776C95.1328 30.86 95.1095 30.9253 95.0815 30.972C95.0535 31.0187 95.0021 31.0467 94.9275 31.056C94.8621 31.0653 94.7501 31.0653 94.5915 31.056L93.8215 31H87.9275ZM93.6395 27.43C93.5555 27.43 93.4995 27.3833 93.4715 27.29L93.2195 26.366C93.1915 26.2633 93.1448 26.1887 93.0795 26.142C93.0141 26.0953 92.9208 26.072 92.7995 26.072H89.2995V25.288H92.8135C92.9255 25.288 93.0095 25.2647 93.0655 25.218C93.1308 25.162 93.1821 25.078 93.2195 24.966L93.4715 24.21C93.4995 24.126 93.5601 24.084 93.6535 24.084H93.8635C93.9475 24.084 93.9895 24.1307 93.9895 24.224V27.304C93.9895 27.388 93.9428 27.43 93.8495 27.43H93.6395ZM94.8715 23.258C94.7968 23.2767 94.7361 23.244 94.6895 23.16L94.1155 21.676C94.0781 21.5733 94.0221 21.5033 93.9475 21.466C93.8821 21.4193 93.7888 21.396 93.6675 21.396H89.2995V20.612H93.8215L94.7875 20.514C94.8808 20.5047 94.9461 20.5093 94.9835 20.528C95.0301 20.5373 95.0628 20.5793 95.0815 20.654C95.1001 20.7193 95.1141 20.8313 95.1235 20.99L95.2355 23.048C95.2355 23.1413 95.1888 23.1927 95.0955 23.202L94.8715 23.258ZM86.4295 31C86.3455 31 86.3035 30.9533 86.3035 30.86V30.678C86.3035 30.5847 86.3501 30.5333 86.4435 30.524L87.6475 30.314C87.7595 30.2953 87.8341 30.2627 87.8715 30.216C87.9088 30.16 87.9275 30.076 87.9275 29.964V27.99H89.2995V31H86.4295ZM86.3035 20.752C86.3035 20.6587 86.3455 20.612 86.4295 20.612H89.2995V23.622H87.9275V21.648C87.9275 21.536 87.9088 21.4567 87.8715 21.41C87.8341 21.354 87.7595 21.3167 87.6475 21.298L86.4435 21.088C86.3501 21.0787 86.3035 21.0273 86.3035 20.934V20.752Z" fill="#273F7C"/>
<path d="M81.3442 27.584C81.2602 27.584 81.2228 27.5373 81.2322 27.444L81.3022 26.814C81.3115 26.73 81.3628 26.688 81.4562 26.688H84.2562L85.1102 26.632C85.1942 26.6227 85.2408 26.6647 85.2502 26.758C85.2595 26.8793 85.2595 26.996 85.2502 27.108C85.2408 27.22 85.2268 27.3367 85.2082 27.458C85.1802 27.542 85.1242 27.584 85.0402 27.584H81.3442Z" fill="#273F7C"/>
<path d="M74.9088 31V23.034H76.1968V31H74.9088ZM74.0688 31C73.9848 31 73.9428 30.9533 73.9428 30.86V30.72C73.9428 30.6267 73.9895 30.5753 74.0828 30.566L74.6288 30.44C74.7595 30.412 74.8388 30.3793 74.8668 30.342C74.8948 30.3047 74.9088 30.2207 74.9088 30.09V28.48H76.1968V30.104C76.1968 30.2253 76.2108 30.3047 76.2388 30.342C76.2761 30.3793 76.3601 30.4073 76.4908 30.426L77.3588 30.58C77.4428 30.5893 77.4848 30.6407 77.4848 30.734V30.874C77.4848 30.958 77.4381 31 77.3448 31H74.0688ZM74.9088 23.048V21.004L75.1608 21.424L73.9568 21.228C73.8728 21.2187 73.8308 21.1673 73.8308 21.074V20.906C73.8308 20.822 73.8775 20.7753 73.9708 20.766L75.8328 20.486C75.9635 20.4673 76.0568 20.4767 76.1128 20.514C76.1688 20.542 76.1968 20.6167 76.1968 20.738V23.048H74.9088ZM79.6128 31C79.5195 31 79.4495 30.9627 79.4028 30.888L76.5888 27.444L77.4288 26.702L80.2428 30.076C80.3175 30.16 80.3921 30.23 80.4668 30.286C80.5508 30.3327 80.6488 30.3747 80.7608 30.412L81.3068 30.566C81.3908 30.5753 81.4328 30.6313 81.4328 30.734V30.874C81.4328 30.958 81.3861 31 81.2928 31H79.6128ZM75.9728 28.2L75.8888 27.43L78.3808 25.12C78.5955 24.924 78.6841 24.7933 78.6468 24.728C78.6188 24.6533 78.4648 24.602 78.1848 24.574L77.9188 24.546C77.8348 24.5367 77.7928 24.4853 77.7928 24.392V24.238C77.7928 24.154 77.8395 24.112 77.9328 24.112H80.8588C80.9428 24.112 80.9848 24.1587 80.9848 24.252V24.406C80.9848 24.4993 80.9381 24.5507 80.8448 24.56L80.2568 24.658C80.1448 24.6767 80.0468 24.7093 79.9628 24.756C79.8788 24.8027 79.7901 24.8633 79.6968 24.938L75.9728 28.2Z" fill="#273F7C"/>
<path d="M70.1707 31.112C69.5267 31.112 68.9573 30.9627 68.4627 30.664C67.9773 30.3653 67.5993 29.95 67.3287 29.418C67.058 28.886 66.9227 28.27 66.9227 27.57C66.9227 26.8607 67.0627 26.24 67.3427 25.708C67.6227 25.176 68.0147 24.7607 68.5187 24.462C69.0227 24.154 69.606 24 70.2687 24C70.67 24 71.076 24.042 71.4867 24.126C71.8973 24.2007 72.2613 24.3033 72.5787 24.434C72.6533 24.4713 72.686 24.5367 72.6767 24.63L72.5507 26.562C72.5413 26.646 72.49 26.688 72.3967 26.688H72.1027C72.0093 26.688 71.958 26.6413 71.9487 26.548L71.5847 24.784L72.1867 25.162C71.9253 25.0593 71.6453 24.98 71.3467 24.924C71.048 24.868 70.7353 24.84 70.4087 24.84C69.6993 24.84 69.1627 25.0593 68.7987 25.498C68.444 25.9273 68.2667 26.5713 68.2667 27.43C68.2667 27.99 68.3647 28.4847 68.5607 28.914C68.766 29.334 69.0507 29.6653 69.4147 29.908C69.7787 30.1507 70.194 30.272 70.6607 30.272C70.9873 30.272 71.3 30.2207 71.5987 30.118C71.9067 30.0153 72.1913 29.8613 72.4527 29.656C72.518 29.5907 72.5787 29.6 72.6347 29.684L72.7607 29.88C72.8073 29.936 72.798 30.006 72.7327 30.09C72.434 30.4167 72.0607 30.6687 71.6127 30.846C71.174 31.0233 70.6933 31.112 70.1707 31.112Z" fill="#273F7C"/>
<path d="M61.1398 31.112C60.5798 31.112 60.1225 30.9487 59.7678 30.622C59.4131 30.2953 59.2358 29.8753 59.2358 29.362C59.2358 28.7833 59.4411 28.3353 59.8518 28.018C60.2718 27.7007 60.9205 27.4907 61.7978 27.388L63.7438 27.15L63.7158 27.78L62.0498 28.004C61.4898 28.088 61.0838 28.2233 60.8318 28.41C60.5891 28.5967 60.4678 28.8627 60.4678 29.208C60.4678 29.5067 60.5658 29.7447 60.7618 29.922C60.9671 30.0993 61.2425 30.188 61.5878 30.188C61.9425 30.188 62.2551 30.132 62.5258 30.02C62.8058 29.8987 63.0391 29.7633 63.2258 29.614C63.4125 29.4647 63.5431 29.3387 63.6178 29.236L63.7858 29.418C63.7578 29.5673 63.6691 29.74 63.5198 29.936C63.3798 30.1227 63.1885 30.3093 62.9458 30.496C62.7125 30.6733 62.4418 30.8227 62.1338 30.944C61.8258 31.056 61.4945 31.112 61.1398 31.112ZM63.5898 26.408C63.5898 25.8853 63.4545 25.484 63.1838 25.204C62.9131 24.9147 62.5305 24.77 62.0358 24.77C61.7931 24.77 61.5738 24.798 61.3778 24.854C61.1818 24.9007 61.0138 25.0033 60.8738 25.162C60.7431 25.3113 60.6451 25.54 60.5798 25.848L60.4818 26.338C60.4538 26.422 60.3978 26.464 60.3138 26.464H60.1598C60.0665 26.464 60.0151 26.4173 60.0058 26.324C59.9498 26.0627 59.8938 25.806 59.8378 25.554C59.7911 25.2927 59.7445 25.036 59.6978 24.784C59.6791 24.7093 59.7118 24.6487 59.7958 24.602C60.0385 24.49 60.3651 24.364 60.7758 24.224C61.1958 24.0747 61.6625 24 62.1758 24C63.0158 24 63.6738 24.21 64.1498 24.63C64.6351 25.05 64.8778 25.624 64.8778 26.352V28.732H63.5898V26.408ZM64.8778 28.732V30.608L64.6118 30.174L65.8158 30.454C65.8998 30.482 65.9418 30.538 65.9418 30.622V30.79C65.9418 30.874 65.8951 30.9207 65.8018 30.93L65.0598 31C64.6398 31.0373 64.3271 31.0467 64.1218 31.028C63.9165 31.0187 63.7811 30.958 63.7158 30.846C63.6505 30.734 63.6178 30.5613 63.6178 30.328V29.614L63.5898 29.502V28.732H64.8778Z" fill="#273F7C"/>
<path d="M50.4802 31V20.612H51.8522V29.908C51.8522 30.02 51.8756 30.0993 51.9222 30.146C51.9782 30.1927 52.0669 30.216 52.1882 30.216H53.7282C54.6616 30.216 55.3522 30.0433 55.8002 29.698C56.2482 29.3527 56.4722 28.8253 56.4722 28.116C56.4722 27.416 56.2342 26.9027 55.7582 26.576C55.2822 26.2493 54.5356 26.086 53.5182 26.086H51.8522V25.302H53.5182C54.3116 25.302 54.8902 25.134 55.2542 24.798C55.6182 24.462 55.8002 23.93 55.8002 23.202C55.8002 22.586 55.6322 22.1333 55.2962 21.844C54.9602 21.5453 54.4376 21.396 53.7282 21.396H51.8522V20.612H53.7282C54.9229 20.612 55.8002 20.8173 56.3602 21.228C56.9202 21.6387 57.2002 22.2827 57.2002 23.16C57.2002 23.58 57.1162 23.9487 56.9482 24.266C56.7896 24.574 56.5842 24.8353 56.3322 25.05C56.0802 25.2647 55.8142 25.428 55.5342 25.54C55.2636 25.6427 55.0116 25.694 54.7782 25.694V25.554C54.9836 25.554 55.2215 25.5867 55.4922 25.652C55.7722 25.708 56.0569 25.8013 56.3462 25.932C56.6356 26.0627 56.9016 26.2307 57.1442 26.436C57.3869 26.6413 57.5829 26.8887 57.7322 27.178C57.8909 27.458 57.9702 27.7893 57.9702 28.172C57.9702 29.124 57.6202 29.8333 56.9202 30.3C56.2202 30.7667 55.1562 31 53.7282 31H50.4802ZM48.9822 31C48.8982 31 48.8562 30.9533 48.8562 30.86V30.678C48.8562 30.5847 48.9029 30.5333 48.9962 30.524L50.2002 30.314C50.3122 30.2953 50.3869 30.2627 50.4242 30.216C50.4615 30.16 50.4802 30.076 50.4802 29.964V27.99H51.8522V31H48.9822ZM48.8562 20.752C48.8562 20.6587 48.8982 20.612 48.9822 20.612H51.8522V23.622H50.4802V21.648C50.4802 21.536 50.4615 21.4567 50.4242 21.41C50.3869 21.354 50.3122 21.3167 50.2002 21.298L48.9962 21.088C48.9029 21.0787 48.8562 21.0273 48.8562 20.934V20.752Z" fill="#273F7C"/>
<path d="M163.5 25C163.5 28.2131 161.363 31.371 157.264 34.3255C153.176 37.2716 147.23 39.9454 139.837 42.1994C125.057 46.7055 104.608 49.5 82 49.5C59.3916 49.5 38.943 46.7055 24.1631 42.1994C16.77 39.9454 10.8235 37.2716 6.73634 34.3255C2.6375 31.371 0.5 28.2131 0.5 25C0.5 21.7869 2.6375 18.629 6.73634 15.6745C10.8235 12.7284 16.77 10.0546 24.1631 7.8006C38.943 3.29452 59.3916 0.5 82 0.5C104.608 0.5 125.057 3.29452 139.837 7.8006C147.23 10.0546 153.176 12.7284 157.264 15.6745C161.363 18.629 163.5 21.7869 163.5 25Z" stroke="#273F7C"/>
</svg>
