<svg width="230" height="70" viewBox="0 0 230 70" fill="none" xmlns="http://www.w3.org/2000/svg">
<path d="M229.5 35C229.5 39.5934 226.44 44.0667 220.671 48.2177C214.914 52.3603 206.551 56.1116 196.172 59.2704C175.42 65.5862 146.721 69.5 115 69.5C83.2788 69.5 54.5802 65.5862 33.8283 59.2704C23.4493 56.1116 15.0864 52.3603 9.3293 48.2177C3.56043 44.0667 0.5 39.5934 0.5 35C0.5 30.4066 3.56043 25.9333 9.3293 21.7823C15.0864 17.6397 23.4493 13.8884 33.8283 10.7296C54.5802 4.41382 83.2788 0.5 115 0.5C146.721 0.5 175.42 4.41382 196.172 10.7296C206.551 13.8884 214.914 17.6397 220.671 21.7823C226.44 25.9333 229.5 30.4066 229.5 35Z" stroke="#273F7C"/>
<path d="M85.7774 45V27.144H88.5854V42.912C88.5854 43.136 88.6334 43.288 88.7294 43.368C88.8254 43.448 88.9854 43.488 89.2094 43.488H95.7854C96.0094 43.488 96.1854 43.448 96.3134 43.368C96.4574 43.288 96.5774 43.16 96.6734 42.984L98.0654 40.464C98.1294 40.32 98.2414 40.28 98.4014 40.344L98.9054 40.464C99.0654 40.512 99.1214 40.616 99.0734 40.776L98.4734 44.544C98.4414 44.704 98.3934 44.832 98.3294 44.928C98.2814 45.024 98.1854 45.08 98.0414 45.096C97.9134 45.112 97.6894 45.112 97.3694 45.096L96.0254 45H85.7774ZM95.7854 38.904C95.6414 38.904 95.5454 38.824 95.4974 38.664L95.0414 37.2C94.9774 37.008 94.8814 36.872 94.7534 36.792C94.6254 36.696 94.4574 36.648 94.2494 36.648H88.5854V35.16H94.2494C94.4734 35.16 94.6414 35.112 94.7534 35.016C94.8654 34.92 94.9614 34.776 95.0414 34.584L95.4974 33.336C95.5454 33.192 95.6494 33.12 95.8094 33.12H96.2654C96.4094 33.12 96.4814 33.2 96.4814 33.36V38.688C96.4814 38.832 96.4014 38.904 96.2414 38.904H95.7854ZM97.8734 31.728C97.7454 31.76 97.6414 31.704 97.5614 31.56L96.5534 29.16C96.4574 28.968 96.3454 28.84 96.2174 28.776C96.0894 28.696 95.9134 28.656 95.6894 28.656H88.5854V27.144H96.0494L97.7774 26.976C97.9694 26.96 98.1054 26.968 98.1854 27C98.2654 27.016 98.3214 27.096 98.3534 27.24C98.3854 27.368 98.4094 27.592 98.4254 27.912L98.5934 31.368C98.5934 31.528 98.5134 31.616 98.3534 31.632L97.8734 31.728ZM83.2814 45C83.1374 45 83.0654 44.92 83.0654 44.76V44.4C83.0654 44.24 83.1454 44.144 83.3054 44.112L85.2494 43.728C85.4734 43.68 85.6174 43.616 85.6814 43.536C85.7454 43.44 85.7774 43.288 85.7774 43.08V39.888H88.5854V45H83.2814ZM83.0654 27.384C83.0654 27.224 83.1374 27.144 83.2814 27.144H88.5854V32.256H85.7774V29.064C85.7774 28.856 85.7454 28.712 85.6814 28.632C85.6174 28.536 85.4734 28.464 85.2494 28.416L83.3054 28.032C83.1454 28 83.0654 27.904 83.0654 27.744V27.384ZM103.011 45V37.44H105.651V45H103.011ZM110.403 35.304C110.403 35.448 110.323 35.52 110.163 35.52H108.723C108.515 35.52 108.323 35.536 108.147 35.568C107.971 35.584 107.787 35.632 107.595 35.712C107.179 35.888 106.771 36.12 106.371 36.408C105.987 36.696 105.667 37.016 105.411 37.368L105.339 36.6C105.483 36.152 105.691 35.712 105.963 35.28C106.251 34.848 106.579 34.456 106.947 34.104C107.331 33.736 107.747 33.448 108.195 33.24C108.643 33.032 109.091 32.928 109.539 32.928C110.115 32.928 110.403 33.024 110.403 33.216V35.304ZM101.667 45C101.507 45 101.427 44.92 101.427 44.76V44.472C101.427 44.312 101.507 44.216 101.667 44.184L102.483 43.992C102.723 43.928 102.867 43.864 102.915 43.8C102.979 43.72 103.011 43.56 103.011 43.32V40.68H105.651V43.344C105.651 43.568 105.675 43.72 105.723 43.8C105.787 43.864 105.939 43.912 106.179 43.944L107.523 44.208C107.667 44.24 107.739 44.328 107.739 44.472V44.784C107.739 44.928 107.659 45 107.499 45H101.667ZM103.011 37.44V33.912L103.443 34.728L101.451 34.368C101.291 34.352 101.211 34.264 101.211 34.104V33.744C101.211 33.616 101.291 33.528 101.451 33.48L104.835 32.976C105.075 32.928 105.243 32.936 105.339 33C105.435 33.064 105.483 33.2 105.483 33.408V35.856L105.651 36.264V37.44H103.011ZM113.628 45V37.44H116.268V45H113.628ZM121.02 35.304C121.02 35.448 120.94 35.52 120.78 35.52H119.34C119.132 35.52 118.94 35.536 118.764 35.568C118.588 35.584 118.404 35.632 118.212 35.712C117.796 35.888 117.388 36.12 116.988 36.408C116.604 36.696 116.284 37.016 116.028 37.368L115.956 36.6C116.1 36.152 116.308 35.712 116.58 35.28C116.868 34.848 117.196 34.456 117.564 34.104C117.948 33.736 118.364 33.448 118.812 33.24C119.26 33.032 119.708 32.928 120.156 32.928C120.732 32.928 121.02 33.024 121.02 33.216V35.304ZM112.284 45C112.124 45 112.044 44.92 112.044 44.76V44.472C112.044 44.312 112.124 44.216 112.284 44.184L113.1 43.992C113.34 43.928 113.484 43.864 113.532 43.8C113.596 43.72 113.628 43.56 113.628 43.32V40.68H116.268V43.344C116.268 43.568 116.292 43.72 116.34 43.8C116.404 43.864 116.556 43.912 116.796 43.944L118.14 44.208C118.284 44.24 118.356 44.328 118.356 44.472V44.784C118.356 44.928 118.276 45 118.116 45H112.284ZM113.628 37.44V33.912L114.06 34.728L112.068 34.368C111.908 34.352 111.828 34.264 111.828 34.104V33.744C111.828 33.616 111.908 33.528 112.068 33.48L115.452 32.976C115.692 32.928 115.86 32.936 115.956 33C116.052 33.064 116.1 33.2 116.1 33.408V35.856L116.268 36.264V37.44H113.628ZM128.757 45.216C127.541 45.216 126.469 44.96 125.541 44.448C124.629 43.936 123.917 43.224 123.405 42.312C122.893 41.4 122.637 40.328 122.637 39.096C122.637 37.864 122.893 36.784 123.405 35.856C123.917 34.928 124.629 34.208 125.541 33.696C126.469 33.184 127.541 32.928 128.757 32.928C130.005 32.928 131.085 33.184 131.997 33.696C132.925 34.208 133.645 34.928 134.157 35.856C134.669 36.784 134.925 37.864 134.925 39.096C134.925 40.328 134.669 41.408 134.157 42.336C133.645 43.248 132.925 43.96 131.997 44.472C131.085 44.968 130.005 45.216 128.757 45.216ZM128.805 43.608C129.877 43.608 130.701 43.224 131.277 42.456C131.869 41.672 132.165 40.568 132.165 39.144C132.165 38.216 132.013 37.408 131.709 36.72C131.421 36.032 131.021 35.504 130.509 35.136C129.997 34.752 129.397 34.56 128.709 34.56C127.653 34.56 126.837 34.944 126.261 35.712C125.685 36.48 125.397 37.576 125.397 39C125.397 40.408 125.709 41.528 126.333 42.36C126.973 43.192 127.797 43.608 128.805 43.608ZM138.893 45V37.44H141.533V45H138.893ZM146.285 35.304C146.285 35.448 146.205 35.52 146.045 35.52H144.605C144.397 35.52 144.205 35.536 144.029 35.568C143.853 35.584 143.669 35.632 143.477 35.712C143.061 35.888 142.653 36.12 142.253 36.408C141.869 36.696 141.549 37.016 141.293 37.368L141.221 36.6C141.365 36.152 141.573 35.712 141.845 35.28C142.133 34.848 142.461 34.456 142.829 34.104C143.213 33.736 143.629 33.448 144.077 33.24C144.525 33.032 144.973 32.928 145.421 32.928C145.997 32.928 146.285 33.024 146.285 33.216V35.304ZM137.549 45C137.389 45 137.309 44.92 137.309 44.76V44.472C137.309 44.312 137.389 44.216 137.549 44.184L138.365 43.992C138.605 43.928 138.749 43.864 138.797 43.8C138.861 43.72 138.893 43.56 138.893 43.32V40.68H141.533V43.344C141.533 43.568 141.557 43.72 141.605 43.8C141.669 43.864 141.821 43.912 142.061 43.944L143.405 44.208C143.549 44.24 143.621 44.328 143.621 44.472V44.784C143.621 44.928 143.541 45 143.381 45H137.549ZM138.893 37.44V33.912L139.325 34.728L137.333 34.368C137.173 34.352 137.093 34.264 137.093 34.104V33.744C137.093 33.616 137.173 33.528 137.333 33.48L140.717 32.976C140.957 32.928 141.125 32.936 141.221 33C141.317 33.064 141.365 33.2 141.365 33.408V35.856L141.533 36.264V37.44H138.893Z" fill="#273F7C"/>
</svg>
