<svg width="164" height="50" viewBox="0 0 164 50" fill="none" xmlns="http://www.w3.org/2000/svg">
<path d="M114.974 28.732V22.642H116.262V28.732H114.974ZM115.198 25.708C114.946 25.4093 114.652 25.19 114.316 25.05C113.989 24.91 113.621 24.84 113.21 24.84C112.501 24.84 111.95 25.0827 111.558 25.568C111.166 26.0533 110.97 26.7347 110.97 27.612C110.97 28.3867 111.133 28.9933 111.46 29.432C111.796 29.8707 112.253 30.09 112.832 30.09C113.252 30.09 113.653 29.9873 114.036 29.782C114.428 29.5767 114.773 29.2873 115.072 28.914L115.212 29.236C114.885 29.8147 114.47 30.272 113.966 30.608C113.471 30.944 112.963 31.112 112.44 31.112C111.871 31.112 111.376 30.972 110.956 30.692C110.536 30.412 110.214 30.0153 109.99 29.502C109.766 28.9887 109.654 28.3773 109.654 27.668C109.654 26.9213 109.785 26.2727 110.046 25.722C110.317 25.1713 110.695 24.7467 111.18 24.448C111.665 24.14 112.23 23.986 112.874 23.986C113.462 23.986 113.985 24.112 114.442 24.364C114.899 24.616 115.268 24.9847 115.548 25.47L115.198 25.708ZM114.974 23.048V21.004L115.226 21.424L114.022 21.228C113.938 21.2187 113.896 21.1673 113.896 21.074V20.906C113.896 20.822 113.943 20.7753 114.036 20.766L115.898 20.486C116.029 20.4673 116.122 20.4767 116.178 20.514C116.234 20.542 116.262 20.6167 116.262 20.738V23.048H114.974ZM116.262 28.732V30.608L115.996 30.174L117.2 30.454C117.284 30.482 117.326 30.538 117.326 30.622V30.79C117.326 30.874 117.279 30.9207 117.186 30.93L115.24 31.112C115.175 31.1213 115.119 31.1073 115.072 31.07C115.035 31.042 115.016 30.9907 115.016 30.916V29.32L114.974 29.194V28.732H116.262Z" fill="#273F7C"/>
<path d="M106.102 26.45C106.102 25.9927 105.986 25.6473 105.752 25.414C105.519 25.1713 105.174 25.05 104.716 25.05C104.315 25.05 103.9 25.1573 103.47 25.372C103.041 25.5773 102.64 25.8667 102.266 26.24L102.14 25.904C102.392 25.5307 102.691 25.204 103.036 24.924C103.382 24.6347 103.75 24.4107 104.142 24.252C104.534 24.084 104.926 24 105.318 24C106.009 24 106.527 24.1913 106.872 24.574C107.218 24.9567 107.39 25.526 107.39 26.282V31H106.102V26.45ZM101.104 31V26.576H102.392V31H101.104ZM100.264 31C100.18 31 100.138 30.9533 100.138 30.86V30.72C100.138 30.6267 100.185 30.5753 100.278 30.566L100.824 30.44C100.955 30.412 101.034 30.3793 101.062 30.342C101.09 30.3047 101.104 30.2207 101.104 30.09V28.48H102.392V30.104C102.392 30.2253 102.406 30.3047 102.434 30.342C102.472 30.3793 102.556 30.4073 102.686 30.426L103.554 30.58C103.638 30.5893 103.68 30.6407 103.68 30.734V30.874C103.68 30.958 103.634 31 103.54 31H100.264ZM105.262 31C105.178 31 105.136 30.9533 105.136 30.86V30.72C105.136 30.6267 105.183 30.5753 105.276 30.566L105.822 30.44C105.953 30.412 106.032 30.3793 106.06 30.342C106.088 30.3047 106.102 30.2207 106.102 30.09V28.48H107.39V30.104C107.39 30.2253 107.404 30.3047 107.432 30.342C107.47 30.3793 107.554 30.4073 107.684 30.426L108.552 30.58C108.636 30.5893 108.678 30.6407 108.678 30.734V30.874C108.678 30.958 108.632 31 108.538 31H105.262ZM101.104 26.576V24.532L101.356 24.952L100.152 24.756C100.068 24.7467 100.026 24.6953 100.026 24.602V24.434C100.026 24.3593 100.073 24.308 100.166 24.28L101.944 24.014C102.075 23.9953 102.168 24.0047 102.224 24.042C102.28 24.07 102.308 24.1447 102.308 24.266V25.652L102.392 25.89V26.576H101.104Z" fill="#273F7C"/>
<path d="M91.0925 31V20.612H92.4645V29.908C92.4645 30.02 92.4878 30.0993 92.5345 30.146C92.5905 30.1927 92.6792 30.216 92.8005 30.216H96.9025C97.0145 30.216 97.1032 30.1927 97.1685 30.146C97.2432 30.0993 97.3085 30.0247 97.3645 29.922L98.1485 28.382C98.1858 28.3073 98.2512 28.284 98.3445 28.312L98.5825 28.382C98.6758 28.41 98.7085 28.4707 98.6805 28.564L98.3165 30.776C98.2978 30.86 98.2745 30.9253 98.2465 30.972C98.2185 31.0187 98.1672 31.0467 98.0925 31.056C98.0272 31.0653 97.9152 31.0653 97.7565 31.056L96.9865 31H91.0925ZM96.8045 27.43C96.7205 27.43 96.6645 27.3833 96.6365 27.29L96.3845 26.366C96.3565 26.2633 96.3098 26.1887 96.2445 26.142C96.1792 26.0953 96.0858 26.072 95.9645 26.072H92.4645V25.288H95.9785C96.0905 25.288 96.1745 25.2647 96.2305 25.218C96.2958 25.162 96.3472 25.078 96.3845 24.966L96.6365 24.21C96.6645 24.126 96.7252 24.084 96.8185 24.084H97.0285C97.1125 24.084 97.1545 24.1307 97.1545 24.224V27.304C97.1545 27.388 97.1078 27.43 97.0145 27.43H96.8045ZM98.0365 23.258C97.9618 23.2767 97.9012 23.244 97.8545 23.16L97.2805 21.676C97.2432 21.5733 97.1872 21.5033 97.1125 21.466C97.0472 21.4193 96.9538 21.396 96.8325 21.396H92.4645V20.612H96.9865L97.9525 20.514C98.0458 20.5047 98.1112 20.5093 98.1485 20.528C98.1952 20.5373 98.2278 20.5793 98.2465 20.654C98.2652 20.7193 98.2792 20.8313 98.2885 20.99L98.4005 23.048C98.4005 23.1413 98.3538 23.1927 98.2605 23.202L98.0365 23.258ZM89.5945 31C89.5105 31 89.4685 30.9533 89.4685 30.86V30.678C89.4685 30.5847 89.5152 30.5333 89.6085 30.524L90.8125 30.314C90.9245 30.2953 90.9992 30.2627 91.0365 30.216C91.0738 30.16 91.0925 30.076 91.0925 29.964V27.99H92.4645V31H89.5945ZM89.4685 20.752C89.4685 20.6587 89.5105 20.612 89.5945 20.612H92.4645V23.622H91.0925V21.648C91.0925 21.536 91.0738 21.4567 91.0365 21.41C90.9992 21.354 90.9245 21.3167 90.8125 21.298L89.6085 21.088C89.5152 21.0787 89.4685 21.0273 89.4685 20.934V20.752Z" fill="#273F7C"/>
<path d="M84.5092 27.584C84.4252 27.584 84.3879 27.5373 84.3972 27.444L84.4672 26.814C84.4765 26.73 84.5279 26.688 84.6212 26.688H87.4212L88.2752 26.632C88.3592 26.6227 88.4059 26.6647 88.4152 26.758C88.4245 26.8793 88.4245 26.996 88.4152 27.108C88.4059 27.22 88.3919 27.3367 88.3732 27.458C88.3452 27.542 88.2892 27.584 88.2052 27.584H84.5092Z" fill="#273F7C"/>
<path d="M81.6604 31.098C81.0164 31.098 80.5311 30.9207 80.2044 30.566C79.8871 30.202 79.7284 29.6653 79.7284 28.956V24.252L79.7564 24.112V22.768C79.7564 22.684 79.8031 22.628 79.8964 22.6C79.9898 22.5813 80.0924 22.5673 80.2044 22.558C80.3164 22.5393 80.4331 22.5253 80.5544 22.516C80.6758 22.4973 80.7878 22.488 80.8904 22.488C80.9744 22.488 81.0164 22.5347 81.0164 22.628V28.928C81.0164 29.3947 81.1238 29.7307 81.3384 29.936C81.5531 30.1413 81.9031 30.244 82.3884 30.244C82.5378 30.244 82.6918 30.2347 82.8504 30.216C83.0184 30.1973 83.1958 30.1647 83.3824 30.118C83.4664 30.0993 83.5131 30.1367 83.5224 30.23L83.5364 30.412C83.5458 30.4867 83.5131 30.5567 83.4384 30.622C83.2891 30.7153 83.1118 30.7993 82.9064 30.874C82.7011 30.9393 82.4911 30.9907 82.2764 31.028C82.0618 31.0747 81.8564 31.098 81.6604 31.098ZM78.8464 24.798C78.7718 24.798 78.7391 24.7513 78.7484 24.658L78.8044 24.364C78.8231 24.28 78.8791 24.2333 78.9724 24.224L79.7564 24.112H82.6404L83.5084 24.07C83.5924 24.07 83.6344 24.1167 83.6344 24.21C83.6438 24.2847 83.6438 24.364 83.6344 24.448C83.6344 24.5227 83.6251 24.5973 83.6064 24.672C83.5784 24.756 83.5224 24.798 83.4384 24.798H78.8464Z" fill="#273F7C"/>
<path d="M75.5048 26.45C75.5048 25.9927 75.3882 25.6473 75.1548 25.414C74.9215 25.1713 74.5762 25.05 74.1188 25.05C73.7175 25.05 73.3022 25.1573 72.8728 25.372C72.4435 25.5773 72.0422 25.8667 71.6688 26.24L71.5428 25.904C71.7948 25.5307 72.0935 25.204 72.4388 24.924C72.7842 24.6347 73.1528 24.4107 73.5448 24.252C73.9368 24.084 74.3288 24 74.7208 24C75.4115 24 75.9295 24.1913 76.2748 24.574C76.6202 24.9567 76.7928 25.526 76.7928 26.282V31H75.5048V26.45ZM70.5068 31V26.576H71.7948V31H70.5068ZM69.6668 31C69.5828 31 69.5408 30.9533 69.5408 30.86V30.72C69.5408 30.6267 69.5875 30.5753 69.6808 30.566L70.2268 30.44C70.3575 30.412 70.4368 30.3793 70.4648 30.342C70.4928 30.3047 70.5068 30.2207 70.5068 30.09V28.48H71.7948V30.104C71.7948 30.2253 71.8088 30.3047 71.8368 30.342C71.8742 30.3793 71.9582 30.4073 72.0888 30.426L72.9568 30.58C73.0408 30.5893 73.0828 30.6407 73.0828 30.734V30.874C73.0828 30.958 73.0362 31 72.9428 31H69.6668ZM74.6648 31C74.5808 31 74.5388 30.9533 74.5388 30.86V30.72C74.5388 30.6267 74.5855 30.5753 74.6788 30.566L75.2248 30.44C75.3555 30.412 75.4348 30.3793 75.4628 30.342C75.4908 30.3047 75.5048 30.2207 75.5048 30.09V28.48H76.7928V30.104C76.7928 30.2253 76.8068 30.3047 76.8348 30.342C76.8722 30.3793 76.9562 30.4073 77.0868 30.426L77.9548 30.58C78.0388 30.5893 78.0808 30.6407 78.0808 30.734V30.874C78.0808 30.958 78.0342 31 77.9408 31H74.6648ZM70.5068 26.576V24.532L70.7588 24.952L69.5548 24.756C69.4708 24.7467 69.4288 24.6953 69.4288 24.602V24.434C69.4288 24.3593 69.4755 24.308 69.5688 24.28L71.3468 24.014C71.4775 23.9953 71.5708 24.0047 71.6268 24.042C71.6828 24.07 71.7108 24.1447 71.7108 24.266V25.652L71.7948 25.89V26.576H70.5068Z" fill="#273F7C"/>
<path d="M64.577 31.112C63.8863 31.112 63.2796 30.9673 62.757 30.678C62.2343 30.3793 61.8283 29.964 61.539 29.432C61.259 28.9 61.119 28.2793 61.119 27.57C61.119 26.8513 61.259 26.226 61.539 25.694C61.8283 25.1527 62.2343 24.7373 62.757 24.448C63.2796 24.1493 63.8863 24 64.577 24C65.2863 24 65.8976 24.1493 66.411 24.448C66.9336 24.7373 67.3396 25.1527 67.629 25.694C67.9183 26.226 68.063 26.8513 68.063 27.57C68.063 28.2793 67.9183 28.9 67.629 29.432C67.3396 29.964 66.9336 30.3793 66.411 30.678C65.8976 30.9673 65.2863 31.112 64.577 31.112ZM64.605 30.286C65.277 30.286 65.795 30.048 66.159 29.572C66.5323 29.096 66.719 28.4333 66.719 27.584C66.719 27.0333 66.6256 26.5527 66.439 26.142C66.2523 25.7313 65.9956 25.4093 65.669 25.176C65.3516 24.9427 64.9783 24.826 64.549 24.826C63.8863 24.826 63.373 25.064 63.009 25.54C62.645 26.0067 62.463 26.6647 62.463 27.514C62.463 28.3447 62.659 29.0167 63.051 29.53C63.4523 30.034 63.9703 30.286 64.605 30.286Z" fill="#273F7C"/>
<path d="M56.0146 31V26.576H57.3026V31H56.0146ZM60.0886 25.218C60.0886 25.302 60.042 25.344 59.9486 25.344H59.1646C59.0526 25.344 58.9453 25.3533 58.8426 25.372C58.7493 25.3813 58.6466 25.4093 58.5346 25.456C58.264 25.568 58.0073 25.7173 57.7646 25.904C57.522 26.0813 57.3213 26.282 57.1626 26.506L57.1206 26.1C57.1953 25.8573 57.3166 25.6147 57.4846 25.372C57.6526 25.1293 57.8486 24.9053 58.0726 24.7C58.306 24.4853 58.5533 24.3173 58.8146 24.196C59.0853 24.0653 59.3513 24 59.6126 24C59.93 24 60.0886 24.0467 60.0886 24.14V25.218ZM55.1746 31C55.0906 31 55.0486 30.9533 55.0486 30.86V30.72C55.0486 30.6267 55.0953 30.5753 55.1886 30.566L55.7346 30.44C55.8653 30.412 55.9446 30.3793 55.9726 30.342C56.0006 30.3047 56.0146 30.2207 56.0146 30.09V28.48H57.3026V30.104C57.3026 30.2253 57.3166 30.3047 57.3446 30.342C57.382 30.3793 57.466 30.4073 57.5966 30.426L58.4646 30.58C58.5486 30.5893 58.5906 30.6407 58.5906 30.734V30.874C58.5906 30.958 58.544 31 58.4506 31H55.1746ZM56.0146 26.576V24.532L56.2666 24.952L55.0626 24.756C54.9786 24.7467 54.9366 24.6953 54.9366 24.602V24.434C54.9366 24.3593 54.9833 24.308 55.0766 24.28L56.8546 24.014C56.9853 23.9953 57.0786 24.0047 57.1346 24.042C57.1906 24.07 57.2186 24.1447 57.2186 24.266V25.652L57.3026 25.89V26.576H56.0146Z" fill="#273F7C"/>
<path d="M47.3152 31V20.612H48.6872V31H47.3152ZM52.8032 27.71C52.7192 27.71 52.6632 27.6633 52.6352 27.57L52.3832 26.646C52.3552 26.5433 52.3085 26.4687 52.2432 26.422C52.1778 26.3753 52.0845 26.352 51.9632 26.352H48.6872V25.568H51.9772C52.0892 25.568 52.1732 25.5447 52.2292 25.498C52.2945 25.442 52.3458 25.358 52.3832 25.246L52.6352 24.476C52.6632 24.392 52.7238 24.35 52.8172 24.35H53.0272C53.1112 24.35 53.1532 24.3967 53.1532 24.49V27.584C53.1532 27.668 53.1065 27.71 53.0132 27.71H52.8032ZM54.0352 23.258C53.9605 23.2767 53.8998 23.244 53.8532 23.16L53.2932 21.69C53.2558 21.5873 53.1998 21.5127 53.1252 21.466C53.0598 21.4193 52.9665 21.396 52.8452 21.396H48.6872V20.612H52.9992L53.9512 20.514C54.0445 20.5047 54.1098 20.5093 54.1472 20.528C54.1938 20.5373 54.2265 20.5793 54.2452 20.654C54.2638 20.7193 54.2778 20.8313 54.2872 20.99L54.3992 23.048C54.3992 23.1413 54.3525 23.1927 54.2592 23.202L54.0352 23.258ZM45.8172 31C45.7332 31 45.6912 30.9533 45.6912 30.86V30.678C45.6912 30.5847 45.7378 30.5333 45.8312 30.524L47.0352 30.314C47.1472 30.2953 47.2218 30.2627 47.2592 30.216C47.2965 30.16 47.3152 30.076 47.3152 29.964V27.99H48.6872V29.936C48.6872 30.048 48.7058 30.1273 48.7432 30.174C48.7898 30.2113 48.8692 30.2393 48.9812 30.258L50.7592 30.538C50.8432 30.5473 50.8852 30.5987 50.8852 30.692V30.874C50.8852 30.958 50.8385 31 50.7452 31H45.8172ZM45.6912 20.752C45.6912 20.6587 45.7332 20.612 45.8172 20.612H48.6872V23.622H47.3152V21.648C47.3152 21.536 47.2965 21.4567 47.2592 21.41C47.2218 21.354 47.1472 21.3167 47.0352 21.298L45.8312 21.088C45.7378 21.0787 45.6912 21.0273 45.6912 20.934V20.752Z" fill="#273F7C"/>
<path d="M163.5 25C163.5 28.2131 161.363 31.371 157.264 34.3255C153.176 37.2716 147.23 39.9454 139.837 42.1994C125.057 46.7055 104.608 49.5 82 49.5C59.3916 49.5 38.943 46.7055 24.1631 42.1994C16.77 39.9454 10.8235 37.2716 6.73634 34.3255C2.6375 31.371 0.5 28.2131 0.5 25C0.5 21.7869 2.6375 18.629 6.73634 15.6745C10.8235 12.7284 16.77 10.0546 24.1631 7.8006C38.943 3.29452 59.3916 0.5 82 0.5C104.608 0.5 125.057 3.29452 139.837 7.8006C147.23 10.0546 153.176 12.7284 157.264 15.6745C161.363 18.629 163.5 21.7869 163.5 25Z" stroke="#273F7C"/>
</svg>
