<svg width="28" height="28" viewBox="0 0 28 28" fill="none" xmlns="http://www.w3.org/2000/svg">
<g clip-path="url(#clip0_332_5528)">
<path d="M26.7983 9.18167L15.9367 0.665C14.805 -0.221667 13.2067 -0.221667 12.0633 0.665L1.20167 9.18167C0.443333 9.77667 0 10.6867 0 11.655V28H28V11.655C28 10.6867 27.5567 9.77667 26.7983 9.18167ZM26.8333 26.8333H1.16667V11.655C1.16667 11.0367 1.44667 10.4767 1.925 10.1033L12.7867 1.58667C13.4983 1.02667 14.5017 1.02667 15.2133 1.58667L26.075 10.0917C26.5533 10.465 26.8333 11.0367 26.8333 11.6433V26.8217V26.8333Z" fill="#273F7C"/>
<path d="M18.6024 15.6327C18.8167 15.8307 18.8167 16.1693 18.6024 16.3673L12.3393 22.1529C12.019 22.4487 11.5 22.2216 11.5 21.7856L11.5 10.2144C11.5 9.7784 12.019 9.55126 12.3393 9.84709L18.6024 15.6327Z" fill="#273F7C"/>
</g>
<defs>
<clipPath id="clip0_332_5528">
<rect width="28" height="28" fill="white"/>
</clipPath>
</defs>
</svg>
