<svg width="91" height="15" viewBox="0 0 91 15" fill="none" xmlns="http://www.w3.org/2000/svg">
<path fill-rule="evenodd" clip-rule="evenodd" d="M8.66295 0.651418C8.2318 -0.217139 6.9891 -0.217139 6.55795 0.651416C6.1268 1.51997 4.84301 4.10582 4.84301 4.10582L1.00656 4.66337C0.0470926 4.8028 -0.344063 5.98188 0.357688 6.66144L3.13096 9.34721L2.47659 13.1407C2.3105 14.1036 3.32395 14.8231 4.17943 14.3758L7.61045 12.5818L11.0414 14.3758C11.8969 14.8231 12.9104 14.1036 12.7443 13.1407L12.0899 9.34721L14.8632 6.66145C15.5649 5.98192 15.1739 4.80281 14.2143 4.66337L10.3779 4.10582L8.66295 0.651418Z" fill="white"/>
<path fill-rule="evenodd" clip-rule="evenodd" d="M46.4972 0.651418C46.066 -0.217139 44.8233 -0.217139 44.3922 0.651416C43.961 1.51997 42.6772 4.10582 42.6772 4.10582L38.8408 4.66337C37.8813 4.8028 37.4902 5.98188 38.1919 6.66144L40.9652 9.34721L40.3108 13.1407C40.1447 14.1036 41.1582 14.8231 42.0137 14.3758L45.4447 12.5818L48.8757 14.3758C49.7311 14.8231 50.7446 14.1036 50.5785 13.1407L49.9241 9.34721L52.6975 6.66145C53.3991 5.98192 53.0081 4.80281 52.0486 4.66337L48.2121 4.10582L46.4972 0.651418Z" fill="white"/>
<path fill-rule="evenodd" clip-rule="evenodd" d="M27.3805 0.651418C26.9493 -0.217139 25.7066 -0.217139 25.2755 0.651416L23.5606 4.10582L19.7241 4.66337C18.7646 4.8028 18.3735 5.98188 19.0752 6.66144L21.8485 9.34721L21.1941 13.1407C21.028 14.1036 22.0415 14.8231 22.897 14.3758L26.328 12.5818L29.759 14.3758C30.6145 14.8231 31.6279 14.1036 31.4618 13.1407L30.8075 9.34721L33.5808 6.66145C34.2824 5.98192 33.8914 4.80281 32.9319 4.66337L29.0954 4.10582L27.3805 0.651418Z" fill="white"/>
<path fill-rule="evenodd" clip-rule="evenodd" d="M65.2147 0.651418C64.7836 -0.217139 63.5409 -0.217139 63.1097 0.651416L61.3948 4.10582L57.5583 4.66337C56.5989 4.8028 56.2077 5.98188 56.9094 6.66144L59.6827 9.34721L59.0283 13.1407C58.8623 14.1036 59.8757 14.8231 60.7312 14.3758L64.1622 12.5818L67.5932 14.3758C68.4487 14.8231 69.4622 14.1036 69.296 13.1407L68.6417 9.34721L71.415 6.66145C72.1166 5.98192 71.7256 4.80281 70.7661 4.66337L66.9296 4.10582L65.2147 0.651418Z" fill="white"/>
<path fill-rule="evenodd" clip-rule="evenodd" d="M83.6629 0.651418C83.2318 -0.217139 81.9891 -0.217139 81.5579 0.651416L79.843 4.10582L76.0066 4.66337C75.0471 4.8028 74.6559 5.98188 75.3577 6.66144L78.131 9.34721L77.4766 13.1407C77.3105 14.1036 78.324 14.8231 79.1794 14.3758L82.6104 12.5818L86.0414 14.3758C86.8969 14.8231 87.9104 14.1036 87.7443 13.1407L87.0899 9.34721L89.8632 6.66145C90.5649 5.98192 90.1739 4.80281 89.2143 4.66337L85.3779 4.10582L83.6629 0.651418Z" fill="white"/>
</svg>
