<svg width="28" height="28" viewBox="0 0 28 28" fill="none" xmlns="http://www.w3.org/2000/svg">
<g clip-path="url(#clip0_332_5519)">
<path d="M21.0117 26.9729V22.8879C21.0117 21.2772 19.7051 19.97 18.0951 19.97H9.92839C8.31839 19.97 7.01172 21.2772 7.01172 22.8879V26.9729H21.0117Z" fill="#273F7C"/>
<path d="M13.8481 17.6357C16.4254 17.6357 18.5147 15.5455 18.5147 12.9671C18.5147 10.3887 16.4254 8.29846 13.8481 8.29846C11.2707 8.29846 9.1814 10.3887 9.1814 12.9671C9.1814 15.5455 11.2707 17.6357 13.8481 17.6357Z" fill="#273F7C"/>
<path d="M26.7983 9.31384L24.5 7.51642L23.3333 6.60604L15.9367 0.805292C14.805 -0.0817444 13.2067 -0.0817444 12.0633 0.805292L1.20167 9.31384C0.443334 9.90909 0 10.8195 0 11.7882V28.14H28V11.7882C28 10.8195 27.5567 9.90909 26.7983 9.31384ZM26.8333 26.9729H21H1.16667V11.7882C1.16667 11.1813 1.44667 10.6094 1.925 10.2359L12.7867 1.71567C13.4983 1.15544 14.5017 1.15544 15.2133 1.71567L26.075 10.2242C26.5533 10.5977 26.8333 11.1696 26.8333 11.7765V26.9612V26.9729Z" fill="#273F7C"/>
</g>
<defs>
<clipPath id="clip0_332_5519">
<rect width="28" height="28" fill="white"/>
</clipPath>
</defs>
</svg>
