<svg width="28" height="28" viewBox="0 0 28 28" fill="none" xmlns="http://www.w3.org/2000/svg">
<g clip-path="url(#clip0_1251_4741)">
<g clip-path="url(#clip1_1251_4741)">
<path d="M27.5555 17.9596L24.2165 21.2997L23.3917 20.4749L26.3655 17.4999H16.3333V16.3332H26.4413L23.3917 13.2836L24.2165 12.4587L27.5555 15.7977C28.1517 16.3939 28.1517 17.3634 27.5555 17.9596ZM17.5 19.8332H18.6667V27.9999H0V4.54991C0 3.16624 0.985833 1.96341 2.345 1.69041L10.5117 0.0570718C11.3715 -0.113262 12.2547 0.104905 12.9325 0.662572C13.4575 1.09307 13.8028 1.6834 13.9347 2.3344H15.75C17.3588 2.3344 18.6667 3.64224 18.6667 5.25107V14.0011H17.5V5.25107C17.5 4.28624 16.7148 3.50107 15.75 3.50107H14V26.8344H17.5V19.8332Z" fill="#273F7C"/>
<path d="M8.16667 13.9999C8.16667 13.3559 8.68933 12.8332 9.33333 12.8332C9.97733 12.8332 10.5 13.3559 10.5 13.9999C10.5 14.6439 9.97733 15.1666 9.33333 15.1666C8.68933 15.1666 8.16667 14.6439 8.16667 13.9999Z" fill="white"/>
</g>
</g>
<defs>
<clipPath id="clip0_1251_4741">
<rect width="28" height="28" fill="white"/>
</clipPath>
<clipPath id="clip1_1251_4741">
<rect width="28" height="28" fill="white"/>
</clipPath>
</defs>
</svg>
