<svg width="28" height="28" viewBox="0 0 28 28" fill="none" xmlns="http://www.w3.org/2000/svg">
<g clip-path="url(#clip0_1251_4742)">
<path d="M27.5529 17.9574L24.2142 21.2972L23.3895 20.4725L26.363 17.4977H16.3318V16.3312H26.4389L23.3895 13.2818L24.2142 12.457L27.5529 15.7957C28.149 16.3918 28.149 17.3612 27.5529 17.9574ZM9.33246 12.8315C8.68852 12.8315 8.1659 13.3541 8.1659 13.9981C8.1659 14.642 8.68852 15.1646 9.33246 15.1646C9.9764 15.1646 10.499 14.642 10.499 13.9981C10.499 13.3541 9.9764 12.8315 9.33246 12.8315ZM17.4984 19.8308H18.6649V27.9967H0V4.54894C0 3.16541 0.985741 1.96269 2.34478 1.68971L10.5107 0.0565324C11.3704 -0.113785 12.2535 0.104361 12.9313 0.661976C13.4562 1.09244 13.8015 1.68271 13.9334 2.33365H15.7485C17.3572 2.33365 18.6649 3.64136 18.6649 5.25005V13.9992H17.4984V5.25005C17.4984 4.2853 16.7133 3.50021 15.7485 3.50021H13.9987V26.8314H17.4984V19.8308ZM12.8321 2.91693C12.8321 2.39081 12.5988 1.89736 12.1917 1.56372C11.7846 1.23009 11.2549 1.09943 10.7393 1.19976L2.57343 2.83294C1.758 2.99742 1.16656 3.71836 1.16656 4.54894V26.8302H12.8321V2.91693Z" fill="#273F7C"/>
</g>
<defs>
<clipPath id="clip0_1251_4742">
<rect width="28" height="28" fill="white"/>
</clipPath>
</defs>
</svg>
