<svg width="36" height="36" viewBox="0 0 36 36" fill="none" xmlns="http://www.w3.org/2000/svg">
<path fill-rule="evenodd" clip-rule="evenodd" d="M18.0001 15.907C18.6936 15.907 19.2559 16.4692 19.2559 17.1628V25.5349C19.2559 26.2285 18.6936 26.7907 18.0001 26.7907C17.3065 26.7907 16.7443 26.2285 16.7443 25.5349V17.1628C16.7443 16.4692 17.3065 15.907 18.0001 15.907Z" fill="#273F7C"/>
<path fill-rule="evenodd" clip-rule="evenodd" d="M18.857 9.52994C19.3725 9.99394 19.4142 10.788 18.9502 11.3035L18.9335 11.3221C18.4695 11.8376 17.6754 11.8793 17.1599 11.4153C16.6444 10.9514 16.6027 10.1573 17.0667 9.64181L17.0834 9.6232C17.5474 9.1077 18.3415 9.06595 18.857 9.52994Z" fill="#273F7C"/>
<path fill-rule="evenodd" clip-rule="evenodd" d="M0 18C0 8.05887 8.05887 0 18 0C27.941 0 36 8.05887 36 18C36 27.941 27.941 36 18 36C8.05887 36 0 27.941 0 18ZM18 2.51163C9.446 2.51163 2.51163 9.446 2.51163 18C2.51163 26.5539 9.44601 33.4884 18 33.4884C26.5539 33.4884 33.4884 26.5539 33.4884 18C33.4884 9.44601 26.5539 2.51163 18 2.51163Z" fill="#273F7C"/>
</svg>
