<svg width="230" height="70" viewBox="0 0 230 70" fill="none" xmlns="http://www.w3.org/2000/svg">
<path d="M229.5 35C229.5 39.5934 226.44 44.0667 220.671 48.2177C214.914 52.3603 206.551 56.1116 196.172 59.2704C175.42 65.5862 146.721 69.5 115 69.5C83.2788 69.5 54.5802 65.5862 33.8283 59.2704C23.4493 56.1116 15.0864 52.3603 9.3293 48.2177C3.56043 44.0667 0.5 39.5934 0.5 35C0.5 30.4066 3.56043 25.9333 9.3293 21.7823C15.0864 17.6397 23.4493 13.8884 33.8283 10.7296C54.5802 4.41382 83.2788 0.5 115 0.5C146.721 0.5 175.42 4.41382 196.172 10.7296C206.551 13.8884 214.914 17.6397 220.671 21.7823C226.44 25.9333 229.5 30.4066 229.5 35Z" stroke="#273F7C"/>
<path d="M144.492 37.296C144.492 36.56 144.292 36 143.892 35.616C143.508 35.232 142.948 35.04 142.212 35.04C141.588 35.04 140.94 35.2 140.268 35.52C139.596 35.84 138.964 36.28 138.372 36.84L138.108 36.264C138.524 35.608 139.02 35.032 139.596 34.536C140.188 34.04 140.82 33.648 141.492 33.36C142.18 33.072 142.868 32.928 143.556 32.928C144.772 32.928 145.668 33.264 146.244 33.936C146.836 34.592 147.132 35.592 147.132 36.936V45H144.492V37.296ZM135.948 45V37.44H138.588V45H135.948ZM134.604 45C134.444 45 134.364 44.92 134.364 44.76V44.472C134.364 44.312 134.444 44.216 134.604 44.184L135.42 43.992C135.66 43.928 135.804 43.864 135.852 43.8C135.916 43.72 135.948 43.56 135.948 43.32V40.68H138.588V43.344C138.588 43.568 138.612 43.72 138.66 43.8C138.724 43.864 138.876 43.912 139.116 43.944L140.46 44.208C140.604 44.24 140.676 44.328 140.676 44.472V44.784C140.676 44.928 140.596 45 140.436 45H134.604ZM143.148 45C142.988 45 142.908 44.92 142.908 44.76V44.472C142.908 44.312 142.988 44.216 143.148 44.184L143.964 43.992C144.204 43.928 144.348 43.864 144.396 43.8C144.46 43.72 144.492 43.56 144.492 43.32V40.68H147.132V43.344C147.132 43.568 147.156 43.72 147.204 43.8C147.268 43.864 147.42 43.912 147.66 43.944L149.004 44.208C149.148 44.24 149.22 44.328 149.22 44.472V44.784C149.22 44.928 149.14 45 148.98 45H143.148ZM135.948 37.44V33.912L136.38 34.728L134.388 34.368C134.228 34.352 134.148 34.264 134.148 34.104V33.744C134.148 33.616 134.228 33.528 134.388 33.48L137.772 32.976C138.012 32.928 138.18 32.936 138.276 33C138.372 33.064 138.42 33.2 138.42 33.408V35.856L138.588 36.264V37.44H135.948Z" fill="#273F7C"/>
<path d="M127.815 45V37.416H130.455V45H127.815ZM126.471 45C126.311 45 126.231 44.92 126.231 44.76V44.472C126.231 44.312 126.311 44.216 126.471 44.184L127.287 43.992C127.527 43.928 127.671 43.864 127.719 43.8C127.783 43.72 127.815 43.56 127.815 43.32V40.68H130.455V43.344C130.455 43.568 130.479 43.72 130.527 43.8C130.591 43.864 130.743 43.912 130.983 43.944L132.327 44.208C132.471 44.24 132.543 44.328 132.543 44.472V44.784C132.543 44.928 132.463 45 132.303 45H126.471ZM127.815 37.416V33.888L128.247 34.704L126.255 34.344C126.095 34.328 126.015 34.24 126.015 34.08V33.72C126.015 33.576 126.095 33.496 126.255 33.48L129.807 32.952C130.047 32.92 130.215 32.936 130.311 33C130.407 33.048 130.455 33.176 130.455 33.384V37.416H127.815ZM129.159 30.984C128.695 30.984 128.303 30.848 127.983 30.576C127.663 30.288 127.503 29.928 127.503 29.496C127.503 29.064 127.663 28.712 127.983 28.44C128.303 28.152 128.695 28.008 129.159 28.008C129.639 28.008 130.031 28.152 130.335 28.44C130.655 28.712 130.815 29.064 130.815 29.496C130.815 29.928 130.655 30.288 130.335 30.576C130.031 30.848 129.639 30.984 129.159 30.984Z" fill="#273F7C"/>
<path d="M117.788 50.376C116.108 50.376 114.836 50.12 113.972 49.608C113.124 49.112 112.7 48.368 112.7 47.376C112.7 47.008 112.812 46.656 113.036 46.32C113.276 45.984 113.596 45.672 113.996 45.384C114.396 45.112 114.844 44.896 115.34 44.736L116.06 45.024C115.676 45.248 115.38 45.504 115.172 45.792C114.98 46.08 114.884 46.4 114.884 46.752C114.884 47.44 115.188 47.968 115.796 48.336C116.404 48.72 117.268 48.912 118.388 48.912C120.82 48.912 122.036 48.224 122.036 46.848C122.036 46.352 121.86 45.976 121.508 45.72C121.172 45.464 120.692 45.336 120.068 45.336H117.164C116.076 45.336 115.236 45.128 114.644 44.712C114.068 44.296 113.78 43.704 113.78 42.936C113.78 42.6 113.852 42.304 113.996 42.048C114.14 41.776 114.388 41.504 114.74 41.232C115.108 40.96 115.604 40.656 116.228 40.32L116.972 40.416C116.556 40.656 116.244 40.928 116.036 41.232C115.828 41.536 115.724 41.84 115.724 42.144C115.724 42.512 115.852 42.776 116.108 42.936C116.38 43.096 116.788 43.176 117.332 43.176H120.884C121.94 43.176 122.748 43.416 123.308 43.896C123.868 44.376 124.148 45.064 124.148 45.96C124.148 46.856 123.884 47.632 123.356 48.288C122.844 48.96 122.116 49.472 121.172 49.824C120.228 50.192 119.1 50.376 117.788 50.376ZM118.268 39.792C119.052 39.792 119.66 39.56 120.092 39.096C120.54 38.632 120.764 37.992 120.764 37.176C120.764 36.344 120.516 35.664 120.02 35.136C119.524 34.608 118.876 34.344 118.076 34.344C117.356 34.344 116.78 34.568 116.348 35.016C115.916 35.464 115.7 36.072 115.7 36.84C115.7 37.72 115.932 38.432 116.396 38.976C116.876 39.52 117.5 39.792 118.268 39.792ZM120.356 33.528C121.22 33.88 121.892 34.376 122.372 35.016C122.868 35.64 123.116 36.336 123.116 37.104C123.116 37.904 122.916 38.616 122.516 39.24C122.116 39.848 121.548 40.328 120.812 40.68C120.092 41.016 119.236 41.184 118.244 41.184C117.236 41.184 116.348 41.008 115.58 40.656C114.828 40.304 114.236 39.824 113.804 39.216C113.388 38.608 113.18 37.896 113.18 37.08C113.18 36.264 113.396 35.544 113.828 34.92C114.26 34.296 114.86 33.816 115.628 33.48C116.396 33.128 117.284 32.952 118.292 32.952C119.028 32.952 119.764 33 120.5 33.096C121.236 33.192 122.02 33.296 122.852 33.408L121.22 33.312L124.004 32.568C124.148 32.552 124.26 32.608 124.34 32.736C124.42 32.96 124.492 33.224 124.556 33.528C124.62 33.816 124.652 34.096 124.652 34.368C124.668 34.512 124.596 34.584 124.436 34.584H120.356V33.528Z" fill="#273F7C"/>
<path d="M104.46 45.216C103.244 45.216 102.172 44.96 101.244 44.448C100.332 43.936 99.6201 43.224 99.1081 42.312C98.5961 41.4 98.3401 40.328 98.3401 39.096C98.3401 37.864 98.5961 36.784 99.1081 35.856C99.6201 34.928 100.332 34.208 101.244 33.696C102.172 33.184 103.244 32.928 104.46 32.928C105.708 32.928 106.788 33.184 107.7 33.696C108.628 34.208 109.348 34.928 109.86 35.856C110.372 36.784 110.628 37.864 110.628 39.096C110.628 40.328 110.372 41.408 109.86 42.336C109.348 43.248 108.628 43.96 107.7 44.472C106.788 44.968 105.708 45.216 104.46 45.216ZM104.508 43.608C105.58 43.608 106.404 43.224 106.98 42.456C107.572 41.672 107.868 40.568 107.868 39.144C107.868 38.216 107.716 37.408 107.412 36.72C107.124 36.032 106.724 35.504 106.212 35.136C105.7 34.752 105.1 34.56 104.412 34.56C103.356 34.56 102.54 34.944 101.964 35.712C101.388 36.48 101.1 37.576 101.1 39C101.1 40.408 101.412 41.528 102.036 42.36C102.676 43.192 103.5 43.608 104.508 43.608Z" fill="#273F7C"/>
<path d="M83.9102 45V27.144H86.7182V42.912C86.7182 43.136 86.7662 43.288 86.8622 43.368C86.9582 43.448 87.1182 43.488 87.3422 43.488H93.2462C93.4542 43.488 93.6222 43.448 93.7502 43.368C93.8942 43.288 94.0142 43.152 94.1102 42.96L95.5022 40.464C95.5662 40.336 95.6782 40.296 95.8382 40.344L96.2942 40.464C96.4542 40.512 96.5102 40.616 96.4622 40.776L95.8862 44.544C95.8542 44.704 95.8062 44.832 95.7422 44.928C95.6942 45.024 95.5982 45.08 95.4542 45.096C95.3262 45.112 95.1022 45.112 94.7822 45.096L93.4622 45H83.9102ZM81.4142 45C81.2702 45 81.1982 44.92 81.1982 44.76V44.4C81.1982 44.24 81.2782 44.144 81.4382 44.112L83.3822 43.728C83.6062 43.68 83.7502 43.616 83.8142 43.536C83.8782 43.44 83.9102 43.288 83.9102 43.08V39.888H86.7182V45H81.4142ZM81.1982 27.384C81.1982 27.224 81.2702 27.144 81.4142 27.144H89.2622C89.4222 27.144 89.5022 27.216 89.5022 27.36V27.744C89.5022 27.888 89.4302 27.984 89.2862 28.032L87.2462 28.416C87.0542 28.464 86.9182 28.528 86.8382 28.608C86.7582 28.688 86.7182 28.84 86.7182 29.064V32.256H83.9102V29.064C83.9102 28.856 83.8782 28.712 83.8142 28.632C83.7502 28.536 83.6062 28.464 83.3822 28.416L81.4382 28.032C81.2782 28 81.1982 27.904 81.1982 27.744V27.384Z" fill="#273F7C"/>
</svg>
