<svg width="230" height="70" viewBox="0 0 230 70" fill="none" xmlns="http://www.w3.org/2000/svg">
<path d="M229.5 35C229.5 39.5934 226.44 44.0667 220.671 48.2177C214.914 52.3603 206.551 56.1116 196.172 59.2704C175.42 65.5862 146.721 69.5 115 69.5C83.2788 69.5 54.5802 65.5862 33.8283 59.2704C23.4493 56.1116 15.0864 52.3603 9.3293 48.2177C3.56043 44.0667 0.5 39.5934 0.5 35C0.5 30.4066 3.56043 25.9333 9.3293 21.7823C15.0864 17.6397 23.4493 13.8884 33.8283 10.7296C54.5802 4.41382 83.2788 0.5 115 0.5C146.721 0.5 175.42 4.41382 196.172 10.7296C206.551 13.8884 214.914 17.6397 220.671 21.7823C226.44 25.9333 229.5 30.4066 229.5 35Z" stroke="#273F7C"/>
<path d="M149.979 49.92V37.44H152.643V49.92H149.979ZM148.635 49.92C148.491 49.92 148.419 49.84 148.419 49.68V49.392C148.419 49.232 148.499 49.136 148.659 49.104L149.475 48.912C149.715 48.848 149.859 48.776 149.907 48.696C149.955 48.632 149.979 48.48 149.979 48.24V45.6H152.643V48.264C152.643 48.488 152.667 48.632 152.715 48.696C152.779 48.776 152.923 48.832 153.147 48.864L154.491 49.128C154.635 49.16 154.707 49.248 154.707 49.392V49.704C154.707 49.848 154.627 49.92 154.467 49.92H148.635ZM152.211 42.288C152.595 42.704 153.051 43.024 153.579 43.248C154.107 43.456 154.707 43.56 155.379 43.56C156.547 43.56 157.451 43.16 158.091 42.36C158.747 41.56 159.075 40.44 159.075 39C159.075 37.736 158.803 36.752 158.259 36.048C157.715 35.328 156.971 34.968 156.027 34.968C155.371 34.968 154.731 35.128 154.107 35.448C153.499 35.752 152.955 36.2 152.475 36.792L152.211 36.216C152.739 35.208 153.427 34.408 154.275 33.816C155.139 33.224 156.035 32.928 156.963 32.928C157.955 32.928 158.811 33.176 159.531 33.672C160.251 34.152 160.803 34.832 161.187 35.712C161.571 36.592 161.763 37.64 161.763 38.856C161.763 40.136 161.531 41.264 161.067 42.24C160.603 43.2 159.947 43.944 159.099 44.472C158.251 44.984 157.251 45.24 156.099 45.24C155.107 45.24 154.227 45.04 153.459 44.64C152.691 44.24 152.043 43.632 151.515 42.816L152.211 42.288ZM149.979 37.44V33.912L150.411 34.728L148.419 34.368C148.275 34.352 148.203 34.264 148.203 34.104V33.744C148.203 33.616 148.283 33.528 148.443 33.48L151.827 32.952C152.051 32.92 152.211 32.936 152.307 33C152.419 33.064 152.475 33.2 152.475 33.408V35.856L152.643 36.264V37.44H149.979Z" fill="#273F7C"/>
<path d="M145.508 38.592C145.508 40.72 144.868 42.36 143.588 43.512C142.324 44.664 140.532 45.24 138.212 45.24C135.924 45.24 134.14 44.704 132.86 43.632C131.596 42.56 130.964 41.064 130.964 39.144V27.144H133.796V39.336C133.796 40.632 134.22 41.656 135.068 42.408C135.932 43.144 137.108 43.512 138.596 43.512C140.1 43.512 141.292 43.096 142.172 42.264C143.052 41.416 143.492 40.256 143.492 38.784V27.144H145.508V38.592ZM128.252 27.384C128.252 27.224 128.324 27.144 128.468 27.144H136.316C136.476 27.144 136.556 27.216 136.556 27.36V27.744C136.556 27.888 136.484 27.984 136.34 28.032L134.3 28.416C134.108 28.464 133.972 28.528 133.892 28.608C133.828 28.688 133.796 28.84 133.796 29.064V32.256H130.964V29.064C130.964 28.856 130.932 28.712 130.868 28.632C130.804 28.536 130.66 28.464 130.436 28.416L128.492 28.032C128.332 28 128.252 27.904 128.252 27.744V27.384ZM140.756 27.384C140.756 27.224 140.828 27.144 140.972 27.144H148.052C148.212 27.144 148.292 27.216 148.292 27.36V27.744C148.292 27.888 148.22 27.984 148.076 28.032L146.036 28.416C145.828 28.464 145.684 28.528 145.604 28.608C145.54 28.688 145.508 28.84 145.508 29.064V32.256H143.492V29.064C143.492 28.856 143.46 28.712 143.396 28.632C143.332 28.536 143.188 28.464 142.964 28.416L140.996 28.032C140.836 28 140.756 27.904 140.756 27.744V27.384Z" fill="#273F7C"/>
<path d="M116.527 37.296C116.527 36.56 116.327 36 115.927 35.616C115.543 35.232 114.983 35.04 114.247 35.04C113.623 35.04 112.975 35.2 112.303 35.52C111.631 35.84 110.999 36.28 110.407 36.84L110.143 36.264C110.559 35.608 111.055 35.032 111.631 34.536C112.223 34.04 112.855 33.648 113.527 33.36C114.215 33.072 114.903 32.928 115.591 32.928C116.807 32.928 117.703 33.264 118.279 33.936C118.871 34.592 119.167 35.592 119.167 36.936V45H116.527V37.296ZM107.983 45V37.44H110.623V45H107.983ZM106.639 45C106.479 45 106.399 44.92 106.399 44.76V44.472C106.399 44.312 106.479 44.216 106.639 44.184L107.455 43.992C107.695 43.928 107.839 43.864 107.887 43.8C107.951 43.72 107.983 43.56 107.983 43.32V40.68H110.623V43.344C110.623 43.568 110.647 43.72 110.695 43.8C110.759 43.864 110.911 43.912 111.151 43.944L112.495 44.208C112.639 44.24 112.711 44.328 112.711 44.472V44.784C112.711 44.928 112.631 45 112.471 45H106.639ZM115.183 45C115.023 45 114.943 44.92 114.943 44.76V44.472C114.943 44.312 115.023 44.216 115.183 44.184L115.999 43.992C116.239 43.928 116.383 43.864 116.431 43.8C116.495 43.72 116.527 43.56 116.527 43.32V40.68H119.167V43.344C119.167 43.568 119.191 43.72 119.239 43.8C119.303 43.864 119.455 43.912 119.695 43.944L121.039 44.208C121.183 44.24 121.255 44.328 121.255 44.472V44.784C121.255 44.928 121.175 45 121.015 45H115.183ZM107.983 37.44V33.912L108.415 34.728L106.423 34.368C106.263 34.352 106.183 34.264 106.183 34.104V33.744C106.183 33.616 106.263 33.528 106.423 33.48L109.807 32.976C110.047 32.928 110.215 32.936 110.311 33C110.407 33.064 110.455 33.2 110.455 33.408V35.856L110.623 36.264V37.44H107.983Z" fill="#273F7C"/>
<path d="M97.9567 50.376C96.2767 50.376 95.0047 50.12 94.1407 49.608C93.2927 49.112 92.8687 48.368 92.8687 47.376C92.8687 47.008 92.9807 46.656 93.2047 46.32C93.4447 45.984 93.7647 45.672 94.1647 45.384C94.5647 45.112 95.0127 44.896 95.5087 44.736L96.2287 45.024C95.8447 45.248 95.5487 45.504 95.3407 45.792C95.1487 46.08 95.0527 46.4 95.0527 46.752C95.0527 47.44 95.3567 47.968 95.9647 48.336C96.5727 48.72 97.4367 48.912 98.5567 48.912C100.989 48.912 102.205 48.224 102.205 46.848C102.205 46.352 102.029 45.976 101.677 45.72C101.341 45.464 100.861 45.336 100.237 45.336H97.3327C96.2447 45.336 95.4047 45.128 94.8127 44.712C94.2367 44.296 93.9487 43.704 93.9487 42.936C93.9487 42.6 94.0207 42.304 94.1647 42.048C94.3087 41.776 94.5567 41.504 94.9087 41.232C95.2767 40.96 95.7727 40.656 96.3967 40.32L97.1407 40.416C96.7247 40.656 96.4127 40.928 96.2047 41.232C95.9967 41.536 95.8927 41.84 95.8927 42.144C95.8927 42.512 96.0207 42.776 96.2767 42.936C96.5487 43.096 96.9567 43.176 97.5007 43.176H101.053C102.109 43.176 102.917 43.416 103.477 43.896C104.037 44.376 104.317 45.064 104.317 45.96C104.317 46.856 104.053 47.632 103.525 48.288C103.013 48.96 102.285 49.472 101.341 49.824C100.397 50.192 99.2687 50.376 97.9567 50.376ZM98.4367 39.792C99.2207 39.792 99.8287 39.56 100.261 39.096C100.709 38.632 100.933 37.992 100.933 37.176C100.933 36.344 100.685 35.664 100.189 35.136C99.6927 34.608 99.0447 34.344 98.2447 34.344C97.5247 34.344 96.9487 34.568 96.5167 35.016C96.0847 35.464 95.8687 36.072 95.8687 36.84C95.8687 37.72 96.1007 38.432 96.5647 38.976C97.0447 39.52 97.6687 39.792 98.4367 39.792ZM100.525 33.528C101.389 33.88 102.061 34.376 102.541 35.016C103.037 35.64 103.285 36.336 103.285 37.104C103.285 37.904 103.085 38.616 102.685 39.24C102.285 39.848 101.717 40.328 100.981 40.68C100.261 41.016 99.4047 41.184 98.4127 41.184C97.4047 41.184 96.5167 41.008 95.7487 40.656C94.9967 40.304 94.4047 39.824 93.9727 39.216C93.5567 38.608 93.3487 37.896 93.3487 37.08C93.3487 36.264 93.5647 35.544 93.9967 34.92C94.4287 34.296 95.0287 33.816 95.7967 33.48C96.5647 33.128 97.4527 32.952 98.4607 32.952C99.1967 32.952 99.9327 33 100.669 33.096C101.405 33.192 102.189 33.296 103.021 33.408L101.389 33.312L104.173 32.568C104.317 32.552 104.429 32.608 104.509 32.736C104.589 32.96 104.661 33.224 104.725 33.528C104.789 33.816 104.821 34.096 104.821 34.368C104.837 34.512 104.765 34.584 104.605 34.584H100.525V33.528Z" fill="#273F7C"/>
<path d="M86.6318 45V37.416H89.2718V45H86.6318ZM85.2878 45C85.1278 45 85.0478 44.92 85.0478 44.76V44.472C85.0478 44.312 85.1278 44.216 85.2878 44.184L86.1038 43.992C86.3438 43.928 86.4878 43.864 86.5358 43.8C86.5998 43.72 86.6318 43.56 86.6318 43.32V40.68H89.2718V43.344C89.2718 43.568 89.2958 43.72 89.3438 43.8C89.4078 43.864 89.5598 43.912 89.7998 43.944L91.1438 44.208C91.2878 44.24 91.3598 44.328 91.3598 44.472V44.784C91.3598 44.928 91.2798 45 91.1198 45H85.2878ZM86.6318 37.416V33.888L87.0638 34.704L85.0718 34.344C84.9118 34.328 84.8318 34.24 84.8318 34.08V33.72C84.8318 33.576 84.9118 33.496 85.0718 33.48L88.6238 32.952C88.8638 32.92 89.0318 32.936 89.1278 33C89.2238 33.048 89.2718 33.176 89.2718 33.384V37.416H86.6318ZM87.9758 30.984C87.5118 30.984 87.1198 30.848 86.7998 30.576C86.4798 30.288 86.3198 29.928 86.3198 29.496C86.3198 29.064 86.4798 28.712 86.7998 28.44C87.1198 28.152 87.5118 28.008 87.9758 28.008C88.4558 28.008 88.8478 28.152 89.1518 28.44C89.4718 28.712 89.6318 29.064 89.6318 29.496C89.6318 29.928 89.4718 30.288 89.1518 30.576C88.8478 30.848 88.4558 30.984 87.9758 30.984Z" fill="#273F7C"/>
<path d="M76.7874 34.752C78.1794 35.184 79.2834 35.64 80.0994 36.12C80.9154 36.6 81.4994 37.136 81.8514 37.728C82.2034 38.32 82.3794 39.04 82.3794 39.888C82.3794 40.992 82.0994 41.944 81.5394 42.744C80.9954 43.528 80.2114 44.136 79.1874 44.568C78.1794 45 76.9714 45.216 75.5634 45.216C74.7154 45.216 73.9234 45.152 73.1874 45.024C72.4674 44.912 71.8354 44.776 71.2914 44.616C70.7474 44.44 70.3154 44.28 69.9954 44.136C69.8674 44.072 69.8034 43.96 69.8034 43.8L69.7554 40.128C69.7554 39.984 69.8354 39.912 69.9954 39.912L70.5234 39.888C70.6674 39.888 70.7634 39.96 70.8114 40.104L71.2914 41.496C71.4354 41.896 71.6354 42.232 71.8914 42.504C72.1474 42.76 72.4514 42.976 72.8034 43.152C73.1714 43.312 73.5714 43.432 74.0034 43.512C74.4354 43.576 74.8994 43.608 75.3954 43.608C76.7074 43.608 77.7234 43.352 78.4434 42.84C79.1794 42.312 79.5474 41.584 79.5474 40.656C79.5474 40.096 79.4274 39.632 79.1874 39.264C78.9634 38.88 78.5554 38.528 77.9634 38.208C77.3714 37.888 76.5394 37.552 75.4674 37.2C74.0274 36.704 72.8914 36.216 72.0594 35.736C71.2274 35.24 70.6274 34.688 70.2594 34.08C69.9074 33.472 69.7314 32.752 69.7314 31.92C69.7314 30.896 70.0034 30.016 70.5474 29.28C71.0914 28.528 71.8594 27.952 72.8514 27.552C73.8594 27.136 75.0274 26.928 76.3554 26.928C77.0914 26.928 77.7634 26.992 78.3714 27.12C78.9954 27.232 79.5474 27.376 80.0274 27.552C80.5234 27.728 80.9154 27.912 81.2034 28.104C81.3154 28.2 81.3714 28.32 81.3714 28.464L81.4194 31.944C81.4194 32.088 81.3394 32.168 81.1794 32.184L80.5794 32.208C80.4354 32.224 80.3314 32.152 80.2674 31.992L79.7154 30.336C79.5714 29.888 79.3474 29.536 79.0434 29.28C78.7394 29.024 78.3634 28.84 77.9154 28.728C77.4834 28.6 76.9714 28.536 76.3794 28.536C75.1634 28.536 74.2274 28.784 73.5714 29.28C72.9314 29.776 72.6114 30.472 72.6114 31.368C72.6114 31.896 72.7314 32.352 72.9714 32.736C73.2274 33.104 73.6594 33.448 74.2674 33.768C74.8914 34.072 75.7314 34.4 76.7874 34.752Z" fill="#273F7C"/>
</svg>
