<svg width="105" height="19" viewBox="0 0 105 19" fill="none" xmlns="http://www.w3.org/2000/svg">
<path d="M99.4011 18.05C98.1411 18.05 97.1871 17.852 96.5391 17.456C95.8911 17.072 95.5671 16.502 95.5671 15.746C95.5671 15.482 95.6511 15.218 95.8191 14.954C95.9871 14.702 96.2151 14.462 96.5031 14.234C96.7911 14.018 97.1151 13.85 97.4751 13.73L98.0151 13.928C97.6791 14.12 97.4211 14.342 97.2411 14.594C97.0611 14.846 96.9711 15.116 96.9711 15.404C96.9711 15.932 97.2051 16.34 97.6731 16.628C98.1411 16.916 98.8071 17.06 99.6711 17.06C101.651 17.06 102.641 16.502 102.641 15.386C102.641 14.99 102.503 14.684 102.227 14.468C101.963 14.264 101.585 14.162 101.093 14.162H98.8971C98.0811 14.162 97.4631 14.018 97.0431 13.73C96.6231 13.43 96.4131 12.998 96.4131 12.434C96.4131 12.182 96.4611 11.966 96.5571 11.786C96.6531 11.594 96.8271 11.402 97.0791 11.21C97.3431 11.006 97.7031 10.772 98.1591 10.508L98.6631 10.616C98.3271 10.82 98.0751 11.036 97.9071 11.264C97.7511 11.48 97.6731 11.708 97.6731 11.948C97.6731 12.224 97.7691 12.428 97.9611 12.56C98.1651 12.692 98.4711 12.758 98.8791 12.758H101.525C102.329 12.758 102.941 12.938 103.361 13.298C103.781 13.646 103.991 14.156 103.991 14.828C103.991 15.488 103.805 16.058 103.433 16.538C103.061 17.018 102.533 17.39 101.849 17.654C101.165 17.918 100.349 18.05 99.4011 18.05ZM99.6711 10.22C100.319 10.22 100.823 10.034 101.183 9.66203C101.555 9.29003 101.741 8.77403 101.741 8.11403C101.741 7.47803 101.531 6.95603 101.111 6.54803C100.703 6.14003 100.175 5.93603 99.5271 5.93603C98.9391 5.93603 98.4651 6.11603 98.1051 6.47603C97.7571 6.83603 97.5831 7.32203 97.5831 7.93403C97.5831 8.60603 97.7751 9.15803 98.1591 9.59003C98.5431 10.01 99.0471 10.22 99.6711 10.22ZM101.201 5.43203C101.837 5.67203 102.329 6.02603 102.677 6.49403C103.037 6.95003 103.217 7.47803 103.217 8.07803C103.217 8.69003 103.067 9.23003 102.767 9.69803C102.479 10.154 102.065 10.508 101.525 10.76C100.997 11.012 100.367 11.138 99.6351 11.138C98.9151 11.138 98.2791 11.012 97.7271 10.76C97.1871 10.496 96.7611 10.136 96.4491 9.68003C96.1491 9.22403 95.9991 8.69603 95.9991 8.09603C95.9991 7.48403 96.1491 6.95003 96.4491 6.49403C96.7611 6.02603 97.1871 5.66603 97.7271 5.41403C98.2791 5.15003 98.9151 5.01803 99.6351 5.01803C100.139 5.01803 100.661 5.05403 101.201 5.12603C101.753 5.19803 102.341 5.27603 102.965 5.36003L101.885 5.28803L103.865 4.73003C103.973 4.71803 104.057 4.76003 104.117 4.85603C104.177 5.00003 104.231 5.16803 104.279 5.36003C104.327 5.55203 104.357 5.73803 104.369 5.91803C104.381 6.02603 104.327 6.08003 104.207 6.08003H101.183L101.201 5.43203Z" fill="#273F7C"/>
<path d="M89.4011 14.144C88.5131 14.144 87.7331 13.958 87.0611 13.586C86.3891 13.202 85.8671 12.668 85.4951 11.984C85.1351 11.3 84.9551 10.502 84.9551 9.59C84.9551 8.666 85.1351 7.862 85.4951 7.178C85.8671 6.482 86.3891 5.948 87.0611 5.576C87.7331 5.192 88.5131 5 89.4011 5C90.3131 5 91.0991 5.192 91.7591 5.576C92.4311 5.948 92.9531 6.482 93.3251 7.178C93.6971 7.862 93.8831 8.666 93.8831 9.59C93.8831 10.502 93.6971 11.3 93.3251 11.984C92.9531 12.668 92.4311 13.202 91.7591 13.586C91.0991 13.958 90.3131 14.144 89.4011 14.144ZM89.4371 13.082C90.3011 13.082 90.9671 12.776 91.4351 12.164C91.9151 11.552 92.1551 10.7 92.1551 9.608C92.1551 8.9 92.0351 8.282 91.7951 7.754C91.5551 7.226 91.2251 6.812 90.8051 6.512C90.3971 6.212 89.9171 6.062 89.3651 6.062C88.5131 6.062 87.8531 6.368 87.3851 6.98C86.9171 7.58 86.6831 8.426 86.6831 9.518C86.6831 10.586 86.9351 11.45 87.4391 12.11C87.9551 12.758 88.6211 13.082 89.4371 13.082Z" fill="#273F7C"/>
<path d="M74.1857 14V0.644043H75.9497V12.596C75.9497 12.74 75.9797 12.842 76.0397 12.902C76.1117 12.962 76.2257 12.992 76.3817 12.992H81.1517C81.2957 12.992 81.4097 12.962 81.4937 12.902C81.5897 12.842 81.6737 12.746 81.7457 12.614L82.7717 10.634C82.8197 10.538 82.9037 10.508 83.0237 10.544L83.2937 10.634C83.4137 10.67 83.4557 10.748 83.4197 10.868L82.9697 13.712C82.9457 13.82 82.9157 13.904 82.8797 13.964C82.8437 14.024 82.7777 14.06 82.6817 14.072C82.5977 14.084 82.4537 14.084 82.2497 14.072L81.2597 14H74.1857ZM72.2597 14C72.1517 14 72.0977 13.94 72.0977 13.82V13.586C72.0977 13.466 72.1577 13.4 72.2777 13.388L73.8257 13.118C73.9697 13.094 74.0657 13.052 74.1137 12.992C74.1617 12.92 74.1857 12.812 74.1857 12.668V10.13H75.9497V14H72.2597ZM72.0977 0.824043C72.0977 0.704043 72.1517 0.644043 72.2597 0.644043H77.9117C78.0317 0.644043 78.0917 0.698043 78.0917 0.806043V1.04004C78.0917 1.14804 78.0377 1.22004 77.9297 1.25604L76.3277 1.52604C76.1837 1.55004 76.0817 1.59204 76.0217 1.65204C75.9737 1.71204 75.9497 1.81404 75.9497 1.95804V4.51404H74.1857V1.97604C74.1857 1.83204 74.1617 1.73004 74.1137 1.67004C74.0657 1.59804 73.9697 1.55004 73.8257 1.52604L72.2777 1.25604C72.1577 1.24404 72.0977 1.17804 72.0977 1.05804V0.824043Z" fill="#273F7C"/>
<path d="M62.4492 14.144C61.6692 14.144 60.9552 13.964 60.3072 13.604C59.6592 13.232 59.1432 12.704 58.7592 12.02C58.3872 11.324 58.2012 10.49 58.2012 9.518C58.2012 8.534 58.3992 7.712 58.7952 7.052C59.1912 6.38 59.7192 5.87 60.3792 5.522C61.0392 5.174 61.7652 5 62.5572 5C63.2292 5 63.8412 5.162 64.3932 5.486C64.9572 5.798 65.4072 6.248 65.7432 6.836C66.0792 7.424 66.2472 8.126 66.2472 8.942C66.2472 8.99 66.2472 9.05 66.2472 9.122C66.2472 9.194 66.2412 9.26 66.2292 9.32C66.1932 9.428 66.1212 9.482 66.0132 9.482H59.6232V8.654H65.1492L64.7352 9.05C64.7352 8.99 64.7352 8.936 64.7352 8.888C64.7352 8.828 64.7352 8.774 64.7352 8.726C64.7352 8.198 64.6332 7.73 64.4292 7.322C64.2252 6.914 63.9432 6.59 63.5832 6.35C63.2352 6.11 62.8332 5.99 62.3772 5.99C61.5852 5.99 60.9672 6.29 60.5232 6.89C60.0912 7.478 59.8752 8.324 59.8752 9.428C59.8752 10.112 60.0072 10.73 60.2712 11.282C60.5352 11.834 60.8952 12.272 61.3512 12.596C61.8072 12.908 62.3232 13.064 62.8992 13.064C63.8352 13.064 64.6092 12.8 65.2212 12.272C65.3052 12.2 65.3772 12.212 65.4372 12.308L65.5992 12.542C65.6592 12.626 65.6532 12.722 65.5812 12.83C65.2092 13.238 64.7472 13.562 64.1952 13.802C63.6552 14.03 63.0732 14.144 62.4492 14.144Z" fill="#273F7C"/>
<path d="M51.6384 14V8.312H53.2944V14H51.6384ZM56.8764 6.566C56.8764 6.674 56.8164 6.728 56.6964 6.728H55.6884C55.5444 6.728 55.4064 6.74 55.2744 6.764C55.1544 6.776 55.0224 6.812 54.8784 6.872C54.5304 7.016 54.2004 7.208 53.8884 7.448C53.5764 7.676 53.3184 7.934 53.1144 8.222L53.0604 7.7C53.1564 7.388 53.3124 7.076 53.5284 6.764C53.7444 6.452 53.9964 6.164 54.2844 5.9C54.5844 5.624 54.9024 5.408 55.2384 5.252C55.5864 5.084 55.9284 5 56.2644 5C56.6724 5 56.8764 5.06 56.8764 5.18V6.566ZM50.5584 14C50.4504 14 50.3964 13.94 50.3964 13.82V13.64C50.3964 13.52 50.4564 13.454 50.5764 13.442L51.2784 13.28C51.4464 13.244 51.5484 13.202 51.5844 13.154C51.6204 13.106 51.6384 12.998 51.6384 12.83V10.76H53.2944V12.848C53.2944 13.004 53.3124 13.106 53.3484 13.154C53.3964 13.202 53.5044 13.238 53.6724 13.262L54.7884 13.46C54.8964 13.472 54.9504 13.538 54.9504 13.658V13.838C54.9504 13.946 54.8904 14 54.7704 14H50.5584ZM51.6384 8.312V5.684L51.9624 6.224L50.4144 5.972C50.3064 5.96 50.2524 5.894 50.2524 5.774V5.558C50.2524 5.462 50.3124 5.396 50.4324 5.36L52.7184 5.018C52.8864 4.994 53.0064 5.006 53.0784 5.054C53.1504 5.09 53.1864 5.186 53.1864 5.342V7.124L53.2944 7.43V8.312H51.6384Z" fill="#273F7C"/>
<path d="M47.4592 11.0841V13.4961L47.1172 12.9381L48.6652 13.2981C48.7732 13.3341 48.8272 13.4061 48.8272 13.5141V13.7301C48.8272 13.8381 48.7672 13.8981 48.6472 13.9101L46.1452 14.1441C46.0612 14.1561 45.9892 14.1381 45.9292 14.0901C45.8812 14.0541 45.8572 13.9881 45.8572 13.8921V11.8401L45.8032 11.6781V11.0841H47.4592ZM42.0592 14.1621C41.1832 14.1621 40.5292 13.9221 40.0972 13.4421C39.6652 12.9501 39.4492 12.2121 39.4492 11.2281V8.3121H41.1052V11.0481C41.1052 12.2241 41.6632 12.8121 42.7792 12.8121C43.9312 12.8121 45.0232 12.2961 46.0552 11.2641L46.1992 11.7501C45.9112 12.2061 45.5512 12.6201 45.1192 12.9921C44.6872 13.3521 44.2072 13.6401 43.6792 13.8561C43.1632 14.0601 42.6232 14.1621 42.0592 14.1621ZM45.8032 11.0841V8.3121H47.4592V11.0841H45.8032ZM39.4492 8.3121V5.6841L39.7732 6.2241L38.2252 5.9721C38.1172 5.9601 38.0632 5.8941 38.0632 5.7741V5.5581C38.0632 5.4501 38.1232 5.3901 38.2432 5.3781L40.6372 5.0181C40.8052 4.9941 40.9252 5.0061 40.9972 5.0541C41.0692 5.0901 41.1052 5.1861 41.1052 5.3421V8.3121H39.4492ZM45.8032 8.3121V5.6841L46.1272 6.2241L44.5792 5.9721C44.4712 5.9601 44.4172 5.8941 44.4172 5.7741V5.5581C44.4172 5.4501 44.4772 5.3901 44.5972 5.3781L46.9912 5.0181C47.1592 4.9941 47.2792 5.0061 47.3512 5.0541C47.4232 5.0901 47.4592 5.1861 47.4592 5.3421V8.3121H45.8032Z" fill="#273F7C"/>
<path d="M34.7423 14.1259C33.9143 14.1259 33.2903 13.8979 32.8703 13.4419C32.4623 12.9739 32.2583 12.2839 32.2583 11.3719V5.32391L32.2943 5.14391V3.41591C32.2943 3.30791 32.3543 3.23591 32.4743 3.19991C32.5943 3.17591 32.7263 3.15791 32.8703 3.14591C33.0143 3.12191 33.1643 3.10391 33.3203 3.09191C33.4763 3.06791 33.6203 3.05591 33.7523 3.05591C33.8603 3.05591 33.9143 3.11591 33.9143 3.23591V11.3359C33.9143 11.9359 34.0523 12.3679 34.3283 12.6319C34.6043 12.8959 35.0543 13.0279 35.6783 13.0279C35.8703 13.0279 36.0683 13.0159 36.2723 12.9919C36.4883 12.9679 36.7163 12.9259 36.9563 12.8659C37.0643 12.8419 37.1243 12.8899 37.1363 13.0099L37.1543 13.2439C37.1663 13.3399 37.1243 13.4299 37.0283 13.5139C36.8363 13.6339 36.6083 13.7419 36.3443 13.8379C36.0803 13.9219 35.8103 13.9879 35.5343 14.0359C35.2583 14.0959 34.9943 14.1259 34.7423 14.1259ZM31.1243 6.02591C31.0283 6.02591 30.9863 5.96591 30.9983 5.84591L31.0703 5.46791C31.0943 5.35991 31.1663 5.29991 31.2863 5.28791L32.2943 5.14391H36.0023L37.1183 5.08991C37.2263 5.08991 37.2803 5.14991 37.2803 5.26991C37.2923 5.36591 37.2923 5.46791 37.2803 5.57591C37.2803 5.67191 37.2683 5.76791 37.2443 5.86391C37.2083 5.97191 37.1363 6.02591 37.0283 6.02591H31.1243Z" fill="#273F7C"/>
<path d="M26.9671 14V3.75797H28.6231V14H26.9671ZM25.8871 14C25.7791 14 25.7251 13.94 25.7251 13.82V13.64C25.7251 13.52 25.7851 13.454 25.9051 13.442L26.6071 13.28C26.7751 13.244 26.8771 13.202 26.9131 13.154C26.9491 13.106 26.9671 12.998 26.9671 12.83V10.76H28.6231V12.848C28.6231 13.004 28.6411 13.106 28.6771 13.154C28.7251 13.202 28.8331 13.238 29.0011 13.262L30.1171 13.46C30.2251 13.472 30.2791 13.538 30.2791 13.658V13.838C30.2791 13.946 30.2191 14 30.0991 14H25.8871ZM26.9671 3.77597V1.14797L27.2911 1.68797L25.7431 1.43597C25.6351 1.42397 25.5811 1.35797 25.5811 1.23797V1.02197C25.5811 0.91397 25.6411 0.853971 25.7611 0.841971L28.1551 0.481971C28.3231 0.457971 28.4431 0.469971 28.5151 0.517971C28.5871 0.55397 28.6231 0.64997 28.6231 0.80597V3.77597H26.9671Z" fill="#273F7C"/>
<path d="M23.1838 11.0841V13.4961L22.8418 12.9381L24.3898 13.2981C24.4978 13.3341 24.5518 13.4061 24.5518 13.5141V13.7301C24.5518 13.8381 24.4918 13.8981 24.3718 13.9101L21.8698 14.1441C21.7858 14.1561 21.7138 14.1381 21.6538 14.0901C21.6058 14.0541 21.5818 13.9881 21.5818 13.8921V11.8401L21.5278 11.6781V11.0841H23.1838ZM17.7838 14.1621C16.9078 14.1621 16.2538 13.9221 15.8218 13.4421C15.3898 12.9501 15.1738 12.2121 15.1738 11.2281V8.3121H16.8298V11.0481C16.8298 12.2241 17.3878 12.8121 18.5038 12.8121C19.6558 12.8121 20.7478 12.2961 21.7798 11.2641L21.9238 11.7501C21.6358 12.2061 21.2758 12.6201 20.8438 12.9921C20.4118 13.3521 19.9318 13.6401 19.4038 13.8561C18.8878 14.0601 18.3478 14.1621 17.7838 14.1621ZM21.5278 11.0841V8.3121H23.1838V11.0841H21.5278ZM15.1738 8.3121V5.6841L15.4978 6.2241L13.9498 5.9721C13.8418 5.9601 13.7878 5.8941 13.7878 5.7741V5.5581C13.7878 5.4501 13.8478 5.3901 13.9678 5.3781L16.3618 5.0181C16.5298 4.9941 16.6498 5.0061 16.7218 5.0541C16.7938 5.0901 16.8298 5.1861 16.8298 5.3421V8.3121H15.1738ZM21.5278 8.3121V5.6841L21.8518 6.2241L20.3038 5.9721C20.1958 5.9601 20.1418 5.8941 20.1418 5.7741V5.5581C20.1418 5.4501 20.2018 5.3901 20.3218 5.3781L22.7158 5.0181C22.8838 4.9941 23.0038 5.0061 23.0758 5.0541C23.1478 5.0901 23.1838 5.1861 23.1838 5.3421V8.3121H21.5278Z" fill="#273F7C"/>
<path d="M7.31925 14.144C5.99925 14.144 4.84125 13.862 3.84525 13.298C2.84925 12.722 2.06925 11.924 1.50525 10.904C0.953246 9.872 0.677246 8.678 0.677246 7.322C0.677246 5.966 0.953246 4.778 1.50525 3.758C2.06925 2.738 2.84925 1.94 3.84525 1.364C4.85325 0.788 6.01125 0.5 7.31925 0.5C8.12325 0.5 8.79525 0.572 9.33525 0.716001C9.88725 0.848 10.3792 0.997999 10.8112 1.166L11.4772 1.292C11.5972 1.304 11.6812 1.328 11.7292 1.364C11.7892 1.4 11.8312 1.466 11.8552 1.562C11.8912 1.658 11.9152 1.808 11.9272 2.012L12.1432 4.82C12.1552 4.916 12.1012 4.982 11.9812 5.018L11.6572 5.072C11.5492 5.084 11.4772 5.036 11.4412 4.928L10.8112 3.092C10.7632 2.96 10.7092 2.852 10.6492 2.768C10.6012 2.684 10.5232 2.6 10.4152 2.516C10.0072 2.228 9.53325 2.012 8.99325 1.868C8.46525 1.724 7.88925 1.652 7.26525 1.652C6.31725 1.652 5.49525 1.886 4.79925 2.354C4.10325 2.81 3.56325 3.464 3.17925 4.316C2.80725 5.156 2.62125 6.158 2.62125 7.322C2.62125 8.474 2.80725 9.476 3.17925 10.328C3.56325 11.18 4.10325 11.84 4.79925 12.308C5.49525 12.776 6.31725 13.01 7.26525 13.01C7.90125 13.01 8.48325 12.938 9.01125 12.794C9.55125 12.65 10.0192 12.434 10.4152 12.146C10.5352 12.05 10.6192 11.96 10.6672 11.876C10.7272 11.792 10.7812 11.684 10.8292 11.552L11.4412 9.716C11.4772 9.596 11.5552 9.554 11.6752 9.59L11.9992 9.644C12.1072 9.656 12.1552 9.722 12.1432 9.842L11.9092 12.884C11.8972 12.992 11.8732 13.082 11.8372 13.154C11.8132 13.214 11.7532 13.262 11.6572 13.298C11.5732 13.334 11.4352 13.37 11.2432 13.406L10.8112 13.496C10.3792 13.652 9.88725 13.802 9.33525 13.946C8.79525 14.078 8.12325 14.144 7.31925 14.144Z" fill="#273F7C"/>
</svg>
