<svg width="367" height="90" viewBox="0 0 367 90" fill="none" xmlns="http://www.w3.org/2000/svg">
<path d="M0.209607 18.2299C0.439607 17.36 0.779607 16.5499 1.22961 15.78C1.67961 15.01 2.23961 14.3899 2.90961 13.91C3.57961 13.43 4.30961 13.14 5.09961 13.05C8.68961 12.83 12.0896 12.61 15.3196 12.4C18.5496 12.1899 21.7696 11.95 24.9996 11.7C28.2296 11.45 31.5196 11.16 34.8896 10.84C38.2596 10.52 41.8796 10.17 45.7496 9.79995C47.6196 9.75995 48.9496 10.2 49.7596 11.11C50.5696 12.0199 50.9896 13.06 51.0096 14.21C51.0296 15.29 50.6596 16.3 49.8896 17.25C49.1196 18.2 48.1296 18.7299 46.9096 18.82L34.8696 20.0499C34.9396 23.2099 35.1896 26.52 35.6196 30C36.0496 33.4799 36.6996 36.64 37.5496 39.49C38.1196 39.48 38.9096 39.42 39.9196 39.33C40.9296 39.24 41.9996 39.12 43.1396 38.99C44.2796 38.86 45.4296 38.7099 46.5796 38.54C47.7296 38.37 48.7996 38.17 49.7996 37.93C51.2296 37.47 52.2696 37.62 52.9296 38.4C53.5896 39.18 54.1496 40.17 54.6096 41.38C54.8496 42.45 54.7596 43.4799 54.3496 44.4599C53.9396 45.4399 52.9496 46.1199 51.3796 46.52H51.4896C50.2096 46.91 48.8096 47.22 47.3096 47.47C45.8096 47.72 44.2496 47.93 42.6396 48.11C41.0296 48.29 39.4296 48.43 37.8596 48.54C36.2896 48.65 34.8096 48.68 33.4496 48.6399C32.2296 48.5999 31.0896 48.4799 30.0496 48.2799C29.0096 48.0799 28.1196 47.82 27.3896 47.4799C25.2496 47.9599 22.9396 48.3799 20.4696 48.7599C17.9996 49.1399 15.5796 49.24 13.2096 49.08C10.4796 49.07 8.23961 48.52 6.49961 47.45C4.75961 46.38 3.59961 44.7 3.04961 42.41L0.0996072 20.82C-0.0603928 19.96 -0.0303928 19.0999 0.209607 18.2299ZM14.4396 21.69C14.5096 25.13 14.7796 28.24 15.2296 30.99C15.6796 33.74 16.4096 36.7299 17.4196 39.9399C17.7096 39.9399 18.1396 39.91 18.7096 39.86C19.2796 39.81 19.9096 39.74 20.5896 39.66C21.2696 39.5799 21.9096 39.4699 22.5196 39.3499C23.1296 39.2299 23.6096 39.06 23.9596 38.83C23.3196 35.9 22.7696 32.99 22.3196 30.09C21.8696 27.19 21.7396 24.2 21.9596 21.1L14.4296 21.69H14.4396ZM71.3396 57.77C73.0096 58.7 73.9396 60.07 74.1196 61.86L74.4096 85.0099C74.4296 86.02 73.7296 86.8699 72.3096 87.5899C70.8896 88.3099 69.3896 88.7799 67.8196 89.0299C65.9596 89.3599 64.2696 89.34 62.7596 88.9799C61.2496 88.6199 60.4696 87.8299 60.4496 86.6099L60.2296 66.37L32.3596 67.73C30.5696 67.91 29.2196 67.57 28.2996 66.69C27.3796 65.81 26.8796 64.77 26.7796 63.5499C26.6796 62.3999 27.0396 61.34 27.8396 60.3499C28.6396 59.3599 29.9396 58.81 31.7396 58.7L64.7696 56.9C67.4896 56.55 69.6896 56.8499 71.3596 57.7799L71.3396 57.77ZM60.5796 8.50995C60.5596 7.64995 61.2496 6.91995 62.6296 6.30995C64.0096 5.69995 65.6096 5.27995 67.3896 5.01995C69.2496 4.90995 70.9796 4.99995 72.5696 5.27995C74.1596 5.55995 74.9596 6.17995 74.9796 7.10995L76.9896 50.15C77.0096 50.87 76.2796 51.5299 74.8296 52.1399C73.3796 52.75 71.8196 53.1399 70.1696 53.32C68.3796 53.57 66.7396 53.47 65.2596 53C63.7796 52.5299 62.9496 51.76 62.7896 50.68L61.5296 32.5099L52.1796 33.47C50.4596 33.72 49.0496 33.38 47.9596 32.43C46.8696 31.4799 46.2596 30.33 46.1596 28.9699C45.9896 27.83 46.2196 26.7199 46.8396 25.67C47.4596 24.62 48.5996 23.93 50.2396 23.6L61.0896 22.5L60.5696 8.50995H60.5796Z" fill="#00846E"/>
<path d="M90.0496 49.2701C87.8096 48.3101 85.9496 46.9801 84.4796 45.3001C83.0096 43.6201 81.9596 41.6001 81.3396 39.2701C80.7196 36.9401 80.5796 34.3101 80.9496 31.3901C81.3196 28.4701 82.1796 25.8701 83.5396 23.5701C84.8996 21.2701 86.5696 19.3701 88.5396 17.8501C90.5096 16.3301 92.7296 15.1701 95.1696 14.3901C97.6096 13.6101 100.1 13.2601 102.64 13.3501C105.18 13.4401 107.55 13.9401 109.77 14.8401C111.99 15.7401 113.87 17.0301 115.44 18.7201C117.01 20.4101 118.18 22.4401 118.97 24.8101C119.76 27.1801 119.97 29.8601 119.6 32.8501C119.23 35.8401 118.35 38.4701 116.96 40.7601C115.57 43.0501 113.87 44.9601 111.86 46.4801C109.85 48.0001 107.62 49.1401 105.18 49.8901C102.74 50.6401 100.29 50.9801 97.8096 50.8801C94.8796 50.7701 92.2996 50.2301 90.0496 49.2701ZM96.5096 24.2501C95.0396 26.0201 94.1696 28.7601 93.8996 32.4601C93.6296 36.1001 94.0896 38.7401 95.2596 40.3801C96.4296 42.0201 97.7696 42.8701 99.2696 42.9301C101.35 43.0101 103.02 42.0901 104.26 40.1901C105.5 38.2901 106.21 35.8701 106.39 32.9401C106.65 29.5601 106.31 26.8601 105.38 24.8401C104.45 22.8201 103.07 21.7701 101.25 21.7001C99.5596 21.6401 97.9796 22.4901 96.5096 24.2601V24.2501ZM141.54 59.8101C142.29 60.6501 142.71 61.5601 142.81 62.5501C142.9 63.5301 142.63 64.4001 141.98 65.1601C141.33 65.9201 140.39 66.2701 139.15 66.2301L137.09 66.3501L136.78 79.8201L138.74 79.7001C140.31 79.4301 141.54 79.7001 142.42 80.4701C143.3 81.2501 143.72 82.2001 143.68 83.3001C143.64 84.2801 143.25 85.1901 142.5 86.0401C141.75 86.8901 140.66 87.3201 139.23 87.3301C137.34 87.4501 134.92 87.5701 131.98 87.6901C129.04 87.8101 125.99 87.9001 122.83 87.9801C119.67 88.0601 116.6 88.1001 113.64 88.1201C110.68 88.1401 108.25 88.1201 106.36 88.0401C104.86 87.9801 103.79 87.5701 103.13 86.7901C102.47 86.0101 102.13 85.1701 102.1 84.2601C102.07 83.3501 102.31 82.5201 102.83 81.8001C103.35 81.0801 104.22 80.6601 105.47 80.5801L109.19 80.5201L108.32 67.2001L106.17 67.1201C104.8 67.0701 103.76 66.6201 103.04 65.7801C102.32 64.9401 101.95 64.0001 101.93 62.9501C101.9 62.0401 102.23 61.1501 102.91 60.3001C103.59 59.4501 104.69 58.9801 106.19 58.9101L137.75 58.9301C139.52 58.6701 140.78 58.9601 141.53 59.8101H141.54ZM120.46 66.8801L121.03 80.1901L125.34 79.9601L125.84 66.7901L120.46 66.8801ZM132.99 13.3101C134.28 12.8401 135.74 12.5301 137.37 12.4001C139 12.3301 140.54 12.4701 142 12.8201C143.46 13.1701 144.16 13.8301 144.12 14.8101L143.46 53.0901C143.44 53.7401 142.75 54.2801 141.4 54.7201C140.05 55.1601 138.62 55.4101 137.12 55.4901C135.42 55.6201 133.89 55.4901 132.54 55.1201C131.19 54.7501 130.53 54.0301 130.57 52.9901L131.02 15.0901C131.05 14.3701 131.7 13.7801 132.99 13.3101Z" fill="#FF76A1"/>
<path d="M157.55 60.36C155.92 60.51 154.68 60.08 153.83 59.08C152.98 58.08 152.52 56.92 152.44 55.59C152.29 54.41 152.51 53.28 153.11 52.21C153.71 51.14 154.7 50.45 156.11 50.16L203.04 48.83C204.67 48.83 205.91 49.35 206.76 50.38C207.61 51.41 208.07 52.56 208.15 53.82C208.15 55.08 207.72 56.26 206.87 57.37C206.02 58.48 204.67 59.03 202.82 59.03L198.27 59.36L197.38 83.21C197.23 84.25 196.38 85.02 194.83 85.54C193.28 86.06 191.61 86.24 189.84 86.09C187.99 86.09 186.44 85.83 185.18 85.31C183.92 84.79 183.33 84.09 183.4 83.2L184.18 59.68L179.08 59.79L177.53 82.98C177.38 84.09 176.51 84.87 174.92 85.31C173.33 85.75 171.57 85.9 169.65 85.75C167.8 85.53 166.23 85.12 164.93 84.53C163.63 83.94 163.06 83.2 163.21 82.31C163.8 78.61 164.21 74.93 164.43 71.27C164.65 67.61 164.95 63.89 165.32 60.12L157.55 60.34V60.36ZM170.42 41.33C167.83 40.33 165.67 38.91 163.93 37.06C162.19 35.21 160.92 32.97 160.1 30.35C159.28 27.73 159.03 24.75 159.32 21.42C159.61 18.09 160.48 15.1 161.93 12.43C163.38 9.76 165.19 7.53 167.37 5.72C169.55 3.91 172.01 2.5 174.75 1.5C177.49 0.5 180.3 0 183.18 0C186.06 0 188.78 0.46 191.33 1.39C193.88 2.32 196.08 3.7 197.93 5.55C199.78 7.4 201.2 9.66 202.2 12.32C203.2 14.98 203.55 18.02 203.25 21.42C202.95 24.82 202.07 27.85 200.59 30.52C199.11 33.19 197.26 35.42 195.04 37.23C192.82 39.04 190.34 40.43 187.61 41.39C184.88 42.35 182.1 42.83 179.29 42.83C175.96 42.83 173 42.33 170.41 41.33H170.42ZM176.69 12.65C175.1 14.72 174.23 17.86 174.08 22.08C173.93 26.22 174.56 29.2 175.97 31.01C177.38 32.82 178.93 33.73 180.63 33.73C183 33.73 184.85 32.62 186.18 30.4C187.51 28.18 188.21 25.41 188.29 22.08C188.44 18.23 187.94 15.18 186.79 12.93C185.64 10.68 184.03 9.55 181.96 9.55C180.04 9.55 178.28 10.59 176.69 12.66V12.65Z" fill="#FFB100"/>
<path d="M217.09 41.66C216.31 41.79 215.61 41.77 214.99 41.61C214.37 41.45 213.85 41.19 213.43 40.83C213.01 40.47 212.66 40.03 212.4 39.51C212.14 38.99 212.01 38.47 212.01 37.95C211.88 36.97 212.12 36.05 212.74 35.17C213.36 34.29 214.19 33.79 215.23 33.66L225.09 32.88L224.6 13.06C224.6 12.34 225.15 11.73 226.26 11.2C227.37 10.67 228.73 10.32 230.36 10.13C232.05 9.93001 233.53 9.98001 234.8 10.28C236.07 10.58 236.7 11.24 236.7 12.28L236.6 31.91C238.81 31.78 240.23 31.68 240.85 31.62C241.47 31.56 241.84 31.52 241.97 31.52C243.21 31.52 244.31 31.98 245.29 32.89C246.27 33.8 247.11 34.84 247.83 36.01C248.16 36.66 248.35 37.34 248.42 38.06C248.49 38.78 248.26 39.39 247.74 39.92H247.84C247.51 40.31 247.17 40.72 246.81 41.14C246.45 41.56 246 42.08 245.44 42.7C244.88 43.32 244.2 44.1 243.39 45.04C242.58 45.98 241.55 47.14 240.31 48.51L250.27 58.67C250.86 59.19 251.04 59.91 250.81 60.82C250.58 61.73 250.11 62.54 249.39 63.26H249.49C248.38 64.37 247.11 65.13 245.68 65.55C244.25 65.97 242.88 65.57 241.58 64.33H241.68L233.38 56.32L222.34 68.04H222.44C221.59 69.15 220.42 69.5 218.92 69.11C217.42 68.72 216.05 67.97 214.82 66.86H214.92C214.07 66.14 213.46 65.35 213.06 64.47C212.66 63.59 212.73 62.89 213.26 62.37L233.87 40.2L217.07 41.66H217.09ZM261.47 16.86C262.74 16.34 264.19 15.98 265.82 15.79C267.45 15.66 268.99 15.74 270.46 16.03C271.93 16.32 272.66 16.96 272.66 17.93L273.44 78.38C273.44 79.03 272.77 79.6 271.44 80.09C270.11 80.58 268.69 80.89 267.19 81.02C265.5 81.22 263.97 81.15 262.6 80.82C261.23 80.49 260.55 79.81 260.55 78.77L259.57 18.71C259.57 17.99 260.2 17.38 261.47 16.85V16.86Z" fill="#7DBCEA"/>
<path d="M321.37 38.5999C322.04 39.3199 322.38 40.1399 322.38 41.0399C322.38 41.8799 322.03 42.6499 321.33 43.3399C320.63 44.0299 319.58 44.4399 318.17 44.5599L304.34 45.0099L302.23 57.2899C302.17 58.1299 301.51 58.7299 300.26 59.0999C299.01 59.4699 297.62 59.6399 296.09 59.6399C294.62 59.5799 293.3 59.3199 292.11 58.8699C290.92 58.4199 290.38 57.8299 290.51 57.1099L292.43 45.2799L282.63 45.4599C281.53 45.5799 280.57 45.2799 279.74 44.5599C278.91 43.8399 278.44 43.0599 278.32 42.2099C278.2 41.4299 278.4 40.6599 278.92 39.9099C279.44 39.1599 280.34 38.7199 281.62 38.5999L318.35 37.5199C319.69 37.5199 320.7 37.8799 321.37 38.5999ZM289.77 33.4499C287.63 32.7299 285.88 31.7299 284.5 30.4699C283.12 29.2099 282.13 27.6899 281.52 25.9099C280.91 24.1299 280.76 22.1899 281.06 20.0899C281.37 17.9199 282.08 15.9499 283.21 14.1799C284.34 12.4099 285.77 10.8799 287.51 9.6199C289.25 8.3599 291.22 7.3799 293.42 6.6899C295.62 5.9999 297.91 5.6499 300.29 5.6499C302.67 5.6499 304.9 5.9799 306.98 6.6399C309.06 7.2999 310.84 8.2499 312.34 9.4799C313.84 10.7099 314.95 12.2299 315.68 14.0399C316.41 15.8499 316.66 17.8599 316.41 20.0899C316.1 22.3199 315.37 24.3199 314.21 26.0899C313.05 27.8599 311.58 29.3899 309.81 30.6499C308.04 31.9099 306.05 32.8799 303.86 33.5399C301.67 34.1999 299.4 34.5299 297.08 34.5299C294.33 34.5299 291.89 34.1699 289.75 33.4499H289.77ZM294.99 14.8499C293.71 15.9299 292.97 17.8599 292.79 20.6299C292.67 22.0199 292.76 23.1399 293.06 24.0199C293.36 24.8999 293.78 25.5699 294.3 26.0499C294.82 26.5299 295.43 26.8599 296.13 27.0399C296.83 27.2199 297.52 27.3099 298.19 27.3099C300.14 27.3099 301.62 26.7199 302.63 25.5499C303.64 24.3799 304.26 22.7399 304.51 20.6299C304.82 18.0399 304.45 16.1599 303.41 14.9899C302.37 13.8199 301 13.2299 299.29 13.2299C297.7 13.2299 296.27 13.7699 294.99 14.8599V14.8499ZM309.51 83.4799C308.5 83.2999 307.6 83.0299 306.81 82.6699C306.02 82.3099 305.38 81.8299 304.89 81.2299C304.4 80.6299 304.19 79.9699 304.25 79.2399L305.53 63.4399C305.53 62.9599 305.73 62.5499 306.13 62.2199C306.53 61.8899 307.03 61.6299 307.64 61.4499C308.25 61.2699 308.94 61.1499 309.7 61.0899C310.46 61.0299 311.24 60.9999 312.04 60.9999C313.57 61.1199 314.96 61.4399 316.21 61.9499C317.46 62.4599 318.06 63.1399 318 63.9799L317.08 75.6299L335.67 74.9099C337.2 74.7899 345.33 75.1099 346.06 75.8599C346.79 76.6099 347.16 77.4699 347.16 78.4299C347.16 79.3299 346.78 80.1899 346.02 80.9999C345.26 81.8099 337.17 82.2499 335.77 82.3099L318.46 83.2999L312.41 83.5699C311.49 83.6899 310.53 83.6599 309.52 83.4799H309.51ZM313.77 56.8399C312.43 56.9599 311.36 56.6699 310.56 55.9799C309.76 55.2899 309.34 54.4899 309.28 53.5899C309.16 52.7499 309.36 51.9599 309.88 51.2399C310.4 50.5199 311.15 50.0399 312.12 49.7999L325.03 49.4399L324.76 11.6999C324.76 10.9799 325.34 10.3899 326.5 9.9399C327.66 9.4899 329.03 9.1999 330.62 9.0799C332.15 9.0199 333.57 9.1599 334.88 9.4899C336.19 9.8199 336.85 10.3799 336.85 11.1599L337.49 60.0099C337.49 60.6699 336.89 61.2099 335.7 61.6399C334.51 62.0699 333.21 62.3599 331.81 62.5399C330.1 62.6599 328.6 62.5699 327.32 62.2699C326.04 61.9699 325.4 61.3399 325.4 60.3699L325.22 56.4899L313.77 56.8499V56.8399Z" fill="#FF2C1C"/>
<path d="M344.61 80.2999C344.61 80.2999 347.46 74.1499 353.4 70.6199C359.34 67.0899 366.1 67.5199 366.1 67.5199C366.1 67.5199 363.25 73.6699 357.31 77.1999C351.38 80.7299 344.61 80.2999 344.61 80.2999Z" fill="#12B275"/>
<path d="M344.76 81.1599C344.76 81.1599 337.81 70.0799 342.52 60.6499C347.61 50.4699 359.98 46.4399 359.98 46.4399C359.98 46.4399 358.03 53.3799 357.58 64.9899C357.16 75.5299 344.77 81.1699 344.77 81.1699L344.76 81.1599Z" fill="#008666"/>
</svg>
